<?xml version="1.0" encoding="UTF-8" standalone="no"?>
<!-- Created with Inkscape (http://www.inkscape.org/) -->

<svg
   width="1219.3435mm"
   height="1860mm"
   viewBox="0 0 1219.3435 1860"
   version="1.1"
   id="svg5"
   xml:space="preserve"
   xmlns="http://www.w3.org/2000/svg"
   xmlns:svg="http://www.w3.org/2000/svg"><defs
     id="defs2"><clipPath
       clipPathUnits="userSpaceOnUse"
       id="clipPath148"><path
         d="M 0,8503.937 H 11338.583 V 0 H 0 Z"
         id="path146" /></clipPath><clipPath
       clipPathUnits="userSpaceOnUse"
       id="clipPath208"><path
         d="m 5669.27,4567.529 c -0.458,-2.3 -14.587,-61.115 -23.264,-122.165 -4.402,-30.164 -7.489,-60.785 -6.965,-85.627 1.183,-43.962 5.85,-58.221 6.243,-97.915 0.33,-37.718 10.645,-69.396 18.73,-109.678 8.738,-52.508 46.329,-132.876 -27.535,-192.281 -107.51,57.171 -98.179,98.965 -96.076,197.078 3.287,54.018 9.462,214.821 -41.27,211.734 -5.782,-5.387 28.718,-68.736 0.658,-161.987 -31.544,-140.763 -34.304,-241.373 58.485,-388.639 179.205,-194.779 88.388,-510.673 75.443,-532.297 -18.795,-31.344 -68.278,-68.474 -107.775,-72.81 -48.233,-4.994 -97.387,8.346 -97.387,104.357 11.04,153.839 126.501,328.116 61.573,458.755 -4.402,-41.99 2.367,-70.381 -3.352,-88.715 -16.163,-51.454 -47.181,-93.51 -112.374,-86.151 -73.798,8.281 -54.08,69 -53.557,114.738 0.592,65.651 6.573,131.365 5.324,196.62 -1.315,63.546 -17.085,109.482 -75.377,119.735 84.512,-71.169 15.116,-229.874 -12.615,-335.677 -62.956,-242.292 -14.785,-441.604 186.564,-600.702 32.07,-25.301 71.96,-48.564 89.833,-85.693 23.724,-49.155 23.329,-107.117 -13.209,-151.537 -32.067,-39.037 -78.135,-42.648 -128.473,-32.27 -58.421,12.291 -85.759,51.981 -90.357,103.896 -4.141,45.149 1.246,91.086 0.654,136.428 -0.919,78.792 -4.994,157.126 -81.091,226.385 18.86,-74.518 38.839,-142.269 22.936,-204.568 -8.412,-33.12 -34.042,-52.311 -73.01,-49.42 -38.444,2.891 -42.847,34.566 -45.212,63.284 -5.127,59.738 -4.205,120.064 -13.539,178.946 -9.2,58.813 -26.023,117.367 -113.423,142.665 67.094,-63.218 77.017,-121.838 58.748,-187.156 -17.808,-62.891 -33.909,-129.72 -49.09,-193.399 -32.263,-134.652 -5.652,-219.883 110.731,-299.862 72.814,-49.941 154.958,-78.855 239.072,-104.351 171.453,-33.061 287.175,-50.801 636.913,1.246 35.948,12.094 72.155,23.328 107.575,37.064 282.051,109.744 369.716,353.482 218.637,608.918 -48.171,81.026 -100.61,159.821 -99.625,277.12 -57.501,-99.23 -25.63,-171.912 11.237,-244.134 23.263,-45.345 56.252,-87.662 47.579,-143.126 -4.405,-27.272 -14.459,-51.457 -47.906,-51.257 -34.042,0.261 -43.504,23.59 -42.912,52.638 0.655,28.521 3.548,57.105 2.627,85.231 -1.642,49.155 6.835,83.525 -71.564,100.351 54.871,-44.033 13.997,-77.284 -7.294,-109.485 -42.846,-64.928 -54.741,-130.315 -20.11,-201.745 15.839,-32.136 12.487,-68.278 6.966,-101.074 -9.069,-51.975 -44.815,-80.434 -100.806,-70.443 -57.043,10.119 -75.178,47.249 -62.89,101.136 9.726,42.582 33.45,78.07 55.859,114.934 46.853,77.151 71.891,80.961 71.299,296.445 40.352,95.154 96.865,66.632 123.742,160.017 20.175,70.184 -29.111,199.443 -29.833,251.819 -0.592,45.146 20.963,51.258 19.318,52.835 0,0 -61.115,12.486 -79.384,-213.839 -2.956,-35.024 -68.473,-47.181 -93.378,-18.594 -5.982,7.029 -22.082,35.616 -11.107,80.961 0.658,2.234 39.298,146.873 42.056,173.289 11.567,110.666 -47.707,125.056 -67.882,194.978 -18.992,65.779 -24.251,126.434 -24.251,126.434 -50.074,-22.734 -0.788,-112.832 15.247,-289.74 5.782,-63.938 -120.523,-234.997 -113.949,-392.45 0.588,-65.975 159.359,-185.317 93.839,-297.491 -10.316,-17.151 -49.943,-96.077 -103.304,-90.687 -51.324,4.533 -63.807,47.837 -63.349,69.854 1.906,83.985 7.754,194.056 -3.879,298.479 4.997,117.894 -56.644,198.92 20.375,294.669 122.623,153.244 16.758,327.523 -5.259,372.342 -20.306,41.927 -43.307,140.172 -50.139,190.573 -0.854,7.294 -10.845,187.093 -11.437,218.11 -0.854,33.516 -55.068,95.087 -59.604,95.087 -9.527,-1.247 33.845,-44.947 26.55,-102.186"
         id="path206" /></clipPath><clipPath
       clipPathUnits="userSpaceOnUse"
       id="clipPath216"><path
         d="m 6004.221,2611.714 c -19.648,-9.398 -40.086,-17.023 -59.669,-23.264 h 54.412 c 23.592,3.221 46.198,9.001 66.832,19.056 3.549,1.709 6.966,3.485 10.383,5.39 -23.657,-3.352 -48.169,-3.55 -71.958,-1.182"
         id="path214" /></clipPath><clipPath
       clipPathUnits="userSpaceOnUse"
       id="clipPath224"><path
         d="m 5944.551,2588.45 h 131.628 v 24.446 h -131.628 z"
         id="path222" /></clipPath><linearGradient
       x1="0"
       y1="0"
       x2="1"
       y2="0"
       gradientUnits="userSpaceOnUse"
       gradientTransform="matrix(0,-2056.783,-2056.783,0,6010.3652,4664.293)"
       spreadMethod="pad"
       id="linearGradient238"><stop
         style="stop-opacity:1;stop-color:#fbe912"
         offset="0"
         id="stop230" /><stop
         style="stop-opacity:1;stop-color:#fbe912"
         offset="0.0390244"
         id="stop232" /><stop
         style="stop-opacity:1;stop-color:#fbe912"
         offset="0.53419213"
         id="stop234" /><stop
         style="stop-opacity:1;stop-color:#e0b128"
         offset="1"
         id="stop236" /></linearGradient><clipPath
       clipPathUnits="userSpaceOnUse"
       id="clipPath248"><path
         d="m 5669.27,4567.529 c -0.458,-2.3 -14.587,-61.115 -23.264,-122.165 -4.402,-30.164 -7.489,-60.785 -6.965,-85.627 1.183,-43.962 5.85,-58.221 6.243,-97.915 0.33,-37.718 10.645,-69.396 18.73,-109.678 8.738,-52.508 46.329,-132.876 -27.535,-192.281 -107.51,57.171 -98.179,98.965 -96.076,197.078 3.287,54.018 9.462,214.821 -41.27,211.734 -5.782,-5.387 28.718,-68.736 0.658,-161.987 -31.544,-140.763 -34.304,-241.373 58.485,-388.639 179.205,-194.779 88.388,-510.673 75.443,-532.297 -18.795,-31.344 -68.278,-68.474 -107.775,-72.81 -48.233,-4.994 -97.387,8.346 -97.387,104.357 11.04,153.839 126.501,328.116 61.573,458.755 -4.402,-41.99 2.367,-70.381 -3.352,-88.715 -16.163,-51.454 -47.181,-93.51 -112.374,-86.151 -73.798,8.281 -54.08,69 -53.557,114.738 0.592,65.651 6.573,131.365 5.324,196.62 -1.315,63.546 -17.085,109.482 -75.377,119.735 84.512,-71.169 15.116,-229.874 -12.615,-335.677 -62.956,-242.292 -14.785,-441.604 186.564,-600.702 32.07,-25.301 71.96,-48.564 89.833,-85.693 23.724,-49.155 23.329,-107.117 -13.209,-151.537 -32.067,-39.037 -78.135,-42.648 -128.473,-32.27 -58.421,12.291 -85.759,51.981 -90.357,103.896 -4.141,45.149 1.246,91.086 0.654,136.428 -0.919,78.792 -4.994,157.126 -81.091,226.385 18.86,-74.518 38.839,-142.269 22.936,-204.568 -8.412,-33.12 -34.042,-52.311 -73.01,-49.42 -38.444,2.891 -42.847,34.566 -45.212,63.284 -5.127,59.738 -4.205,120.064 -13.539,178.946 -9.2,58.813 -26.023,117.367 -113.423,142.665 67.094,-63.218 77.017,-121.838 58.748,-187.156 -17.808,-62.891 -33.909,-129.72 -49.09,-193.399 -32.263,-134.652 -5.652,-219.883 110.731,-299.862 72.814,-49.941 154.958,-78.855 239.072,-104.351 171.453,-33.061 287.175,-50.801 636.913,1.246 35.948,12.094 72.155,23.328 107.575,37.064 282.051,109.744 369.716,353.482 218.637,608.918 -48.171,81.026 -100.61,159.821 -99.625,277.12 -57.501,-99.23 -25.63,-171.912 11.237,-244.134 23.263,-45.345 56.252,-87.662 47.579,-143.126 -4.405,-27.272 -14.459,-51.457 -47.906,-51.257 -34.042,0.261 -43.504,23.59 -42.912,52.638 0.655,28.521 3.548,57.105 2.627,85.231 -1.642,49.155 6.835,83.525 -71.564,100.351 54.871,-44.033 13.997,-77.284 -7.294,-109.485 -42.846,-64.928 -54.741,-130.315 -20.11,-201.745 15.839,-32.136 12.487,-68.278 6.966,-101.074 -9.069,-51.975 -44.815,-80.434 -100.806,-70.443 -57.043,10.119 -75.178,47.249 -62.89,101.136 9.726,42.582 33.45,78.07 55.859,114.934 46.853,77.151 71.891,80.961 71.299,296.445 40.352,95.154 96.865,66.632 123.742,160.017 20.175,70.184 -29.111,199.443 -29.833,251.819 -0.592,45.146 20.963,51.258 19.318,52.835 0,0 -61.115,12.486 -79.384,-213.839 -2.956,-35.024 -68.473,-47.181 -93.378,-18.594 -5.982,7.029 -22.082,35.616 -11.107,80.961 0.658,2.234 39.298,146.873 42.056,173.289 11.567,110.666 -47.707,125.056 -67.882,194.978 -18.992,65.779 -24.251,126.434 -24.251,126.434 -50.074,-22.734 -0.788,-112.832 15.247,-289.74 5.782,-63.938 -120.523,-234.997 -113.949,-392.45 0.588,-65.975 159.359,-185.317 93.839,-297.491 -10.316,-17.151 -49.943,-96.077 -103.304,-90.687 -51.324,4.533 -63.807,47.837 -63.349,69.854 1.906,83.985 7.754,194.056 -3.879,298.479 4.997,117.894 -56.644,198.92 20.375,294.669 122.623,153.244 16.758,327.523 -5.259,372.342 -20.306,41.927 -43.307,140.172 -50.139,190.573 -0.854,7.294 -10.845,187.093 -11.437,218.11 -0.854,33.516 -55.068,95.087 -59.604,95.087 -9.527,-1.247 33.845,-44.947 26.55,-102.186"
         id="path246" /></clipPath><clipPath
       clipPathUnits="userSpaceOnUse"
       id="clipPath256"><path
         d="m 5249.285,2613.682 c -28.586,5.195 -36.473,29.77 -29.967,51.457 -0.526,-0.197 -0.985,-0.329 -1.511,-0.462 -0.461,-0.196 -0.724,-0.392 -1.249,-0.588 -5.191,-2.696 -10.317,-5.588 -15.18,-8.937 -1.906,-1.252 -3.746,-2.563 -5.586,-3.879 -0.459,-0.392 -1.38,-1.183 -3.154,-2.562 -4.272,-3.811 -8.543,-7.69 -12.618,-11.765 -17.283,-16.886 -45.606,-17.215 -62.823,0 -7.426,7.429 -11.435,17.087 -12.42,27.074 -1.709,0.855 -3.221,1.909 -4.732,2.96 -26.878,-19.846 -78.924,4.336 -71.235,48.761 3.614,20.897 9.134,40.743 16.232,59.539 -9.333,-5.194 -18.861,-10.188 -28.456,-14.985 -16.166,-8.151 -30.36,16.164 -14.194,24.25 8.74,4.4 17.415,8.936 25.892,13.601 -7.689,0.594 -15.246,1.708 -22.54,2.892 -5.257,0.854 -8.412,4.733 -9.595,9.265 -3.352,1.512 -5.783,4.076 -7.163,7.099 h -10.843 -10.777 c -4.534,0 -7.886,1.709 -10.12,4.336 V 2588.45 h 346.056 c -4.928,4.93 -8.936,10.842 -11.565,17.283 -14.195,2.695 -28.258,5.387 -42.452,7.949"
         id="path254" /></clipPath><clipPath
       clipPathUnits="userSpaceOnUse"
       id="clipPath264"><path
         d="m 4957.245,2588.45 h 346.057 v 233.288 h -346.057 z"
         id="path262" /></clipPath><linearGradient
       x1="0"
       y1="0"
       x2="1"
       y2="0"
       gradientUnits="userSpaceOnUse"
       gradientTransform="matrix(0,-2063.3521,-2063.3521,0,5130.2729,4670.9233)"
       spreadMethod="pad"
       id="linearGradient278"><stop
         style="stop-opacity:1;stop-color:#fbe912"
         offset="0"
         id="stop270" /><stop
         style="stop-opacity:1;stop-color:#fbe912"
         offset="0.0390244"
         id="stop272" /><stop
         style="stop-opacity:1;stop-color:#fbe912"
         offset="0.53419213"
         id="stop274" /><stop
         style="stop-opacity:1;stop-color:#e0b128"
         offset="1"
         id="stop276" /></linearGradient><clipPath
       clipPathUnits="userSpaceOnUse"
       id="clipPath288"><path
         d="m 5642.697,4669.711 c -9.436,-1.312 33.862,-44.988 26.572,-102.183 v 0 c -0.457,-2.299 -14.586,-61.114 -23.263,-122.164 v 0 c -4.402,-30.164 -7.49,-60.785 -6.966,-85.627 v 0 c 1.185,-43.962 5.85,-58.221 6.244,-97.915 v 0 c 0.33,-37.718 10.645,-69.396 18.73,-109.678 v 0 c 8.737,-52.507 46.329,-132.875 -27.535,-192.281 v 0 c -107.509,57.171 -98.179,98.965 -96.076,197.078 v 0 c 3.286,54.018 9.462,214.82 -41.27,211.733 v 0 c -5.783,-5.387 28.718,-68.735 0.657,-161.986 v 0 c -31.543,-140.763 -34.303,-241.373 58.486,-388.639 v 0 c 179.206,-194.779 88.389,-510.673 75.443,-532.297 v 0 c -18.795,-31.344 -68.277,-68.474 -107.776,-72.811 v 0 c -48.233,-4.993 -97.387,8.346 -97.387,104.357 v 0 c 11.042,153.839 126.501,328.117 61.573,458.756 v 0 c -4.402,-41.991 2.367,-70.382 -3.352,-88.716 v 0 c -16.163,-51.453 -47.179,-93.508 -112.374,-86.15 v 0 c -73.797,8.28 -54.08,69.001 -53.557,114.737 v 0 c 0.593,65.652 6.573,131.366 5.324,196.621 v 0 c -1.315,63.546 -17.085,109.483 -75.376,119.734 v 0 c 84.512,-71.168 15.115,-229.874 -12.615,-335.676 v 0 C 5175.223,3454.313 5223.393,3255 5424.743,3095.901 v 0 c 5.194,-4.074 10.515,-8.08 15.97,-12.091 v 0 c 118.485,52.245 252.611,66.44 383.121,37.856 v 0 c 47.51,-10.386 93.051,-26.288 137.671,-44.819 v 0 c 4.009,6.568 8.084,13.138 12.093,19.777 v 0 c 46.854,77.151 71.893,80.961 71.3,296.444 v 0 c 40.352,95.156 96.864,66.633 123.742,160.017 v 0 c 20.175,70.185 -29.111,199.444 -29.834,251.821 v 0 c -0.592,45.145 20.964,51.258 19.319,52.834 v 0 c 0,0 -61.115,12.487 -79.385,-213.839 v 0 c -2.955,-35.024 -68.472,-47.181 -93.378,-18.594 v 0 c -5.981,7.029 -22.081,35.616 -11.106,80.961 v 0 c 0.657,2.233 39.298,146.874 42.055,173.289 v 0 c 11.568,110.665 -47.706,125.056 -67.882,194.978 v 0 c -18.992,65.779 -24.25,126.434 -24.25,126.434 v 0 c -50.075,-22.735 -0.788,-112.831 15.246,-289.741 v 0 c 5.783,-63.937 -120.522,-234.996 -113.948,-392.449 v 0 c 0.589,-65.976 159.358,-185.318 93.838,-297.492 v 0 c -10.315,-17.149 -49.942,-96.076 -103.303,-90.686 v 0 c -51.324,4.533 -63.807,47.838 -63.349,69.853 v 0 c 1.907,83.986 7.754,194.057 -3.88,298.48 v 0 c 4.998,117.894 -56.644,198.919 20.375,294.669 v 0 c 122.624,153.245 16.759,327.522 -5.258,372.342 v 0 c -20.306,41.926 -43.307,140.171 -50.139,190.573 v 0 c -0.854,7.293 -10.845,187.094 -11.436,218.11 v 0 c -0.851,33.377 -54.621,94.576 -59.547,95.083 v 0 z M 6214.05,3319.464 c 23.263,-45.344 56.252,-87.662 47.579,-143.125 v 0 c -4.405,-27.272 -14.458,-51.457 -47.907,-51.258 v 0 c -34.041,0.262 -43.503,23.589 -42.912,52.637 v 0 c 0.655,28.521 3.548,57.107 2.627,85.232 v 0 c -1.641,49.156 6.836,83.524 -71.563,100.351 v 0 c 54.871,-44.033 13.997,-77.284 -7.294,-109.486 v 0 c -42.847,-64.927 -54.741,-130.314 -20.11,-201.744 v 0 c 1.776,-3.746 3.352,-7.493 4.731,-11.303 v 0 c 103.766,-32.596 174.278,-93.712 251.954,-166.392 v 0 c 66.371,116.972 59.801,262.533 -28.717,412.102 v 0 c -48.17,81.026 -100.61,159.821 -99.625,277.119 v 0 c -57.502,-99.229 -25.63,-171.911 11.237,-244.133 m -1175.451,-82.602 c -17.807,-62.891 -33.908,-129.72 -49.089,-193.4 v 0 c -12.684,-53.034 -16.297,-98.375 -8.871,-138.788 v 0 c 35.421,19.777 76.69,30.03 116.449,23.263 v 0 c 3.614,1.904 7.162,3.872 10.777,5.78 v 0 c 7.755,15.707 19.517,28.847 37.787,31.148 v 0 c 6.439,0.855 12.748,-0.394 18.595,-3.021 v 0 c 0.199,0.063 0.331,0.129 0.461,0.197 v 0 c 35.289,16.36 76.231,35.815 117.04,42.186 v 0 c 0.788,20.898 1.708,41.732 1.443,62.498 v 0 c -0.92,78.792 -4.993,157.126 -81.091,226.385 v 0 c 18.861,-74.517 38.839,-142.267 22.936,-204.567 v 0 c -8.412,-33.119 -34.043,-52.311 -73.01,-49.421 v 0 c -38.444,2.892 -42.846,34.566 -45.212,63.285 v 0 c -5.127,59.737 -4.206,120.065 -13.539,178.946 v 0 c -9.2,58.813 -26.023,117.367 -113.424,142.664 v 0 c 67.095,-63.218 77.018,-121.837 58.748,-187.155"
         id="path286" /></clipPath><linearGradient
       x1="0"
       y1="0"
       x2="1"
       y2="0"
       gradientUnits="userSpaceOnUse"
       gradientTransform="matrix(0,-2062.1448,-2062.1448,0,5685.3706,4669.7119)"
       spreadMethod="pad"
       id="linearGradient302"><stop
         style="stop-opacity:1;stop-color:#fbe912"
         offset="0"
         id="stop294" /><stop
         style="stop-opacity:1;stop-color:#fbe912"
         offset="0.0390244"
         id="stop296" /><stop
         style="stop-opacity:1;stop-color:#fbe912"
         offset="0.53419213"
         id="stop298" /><stop
         style="stop-opacity:1;stop-color:#e0b128"
         offset="1"
         id="stop300" /></linearGradient><clipPath
       clipPathUnits="userSpaceOnUse"
       id="clipPath312"><path
         d="m 5669.27,4567.529 c -0.458,-2.3 -14.587,-61.115 -23.264,-122.165 -4.402,-30.164 -7.489,-60.785 -6.965,-85.627 1.183,-43.962 5.85,-58.221 6.243,-97.915 0.33,-37.718 10.645,-69.396 18.73,-109.678 8.738,-52.508 46.329,-132.876 -27.535,-192.281 -107.51,57.171 -98.179,98.965 -96.076,197.078 3.287,54.018 9.462,214.821 -41.27,211.734 -5.782,-5.387 28.718,-68.736 0.658,-161.987 -31.544,-140.763 -34.304,-241.373 58.485,-388.639 179.205,-194.779 88.388,-510.673 75.443,-532.297 -18.795,-31.344 -68.278,-68.474 -107.775,-72.81 -48.233,-4.994 -97.387,8.346 -97.387,104.357 11.04,153.839 126.501,328.116 61.573,458.755 -4.402,-41.99 2.367,-70.381 -3.352,-88.715 -16.163,-51.454 -47.181,-93.51 -112.374,-86.151 -73.798,8.281 -54.08,69 -53.557,114.738 0.592,65.651 6.573,131.365 5.324,196.62 -1.315,63.546 -17.085,109.482 -75.377,119.735 84.512,-71.169 15.116,-229.874 -12.615,-335.677 -62.956,-242.292 -14.785,-441.604 186.564,-600.702 32.07,-25.301 71.96,-48.564 89.833,-85.693 23.724,-49.155 23.329,-107.117 -13.209,-151.537 -32.067,-39.037 -78.135,-42.648 -128.473,-32.27 -58.421,12.291 -85.759,51.981 -90.357,103.896 -4.141,45.149 1.246,91.086 0.654,136.428 -0.919,78.792 -4.994,157.126 -81.091,226.385 18.86,-74.518 38.839,-142.269 22.936,-204.568 -8.412,-33.12 -34.042,-52.311 -73.01,-49.42 -38.444,2.891 -42.847,34.566 -45.212,63.284 -5.127,59.738 -4.205,120.064 -13.539,178.946 -9.2,58.813 -26.023,117.367 -113.423,142.665 67.094,-63.218 77.017,-121.838 58.748,-187.156 -17.808,-62.891 -33.909,-129.72 -49.09,-193.399 -32.263,-134.652 -5.652,-219.883 110.731,-299.862 72.814,-49.941 154.958,-78.855 239.072,-104.351 171.453,-33.061 287.175,-50.801 636.913,1.246 35.948,12.094 72.155,23.328 107.575,37.064 282.051,109.744 369.716,353.482 218.637,608.918 -48.171,81.026 -100.61,159.821 -99.625,277.12 -57.501,-99.23 -25.63,-171.912 11.237,-244.134 23.263,-45.345 56.252,-87.662 47.579,-143.126 -4.405,-27.272 -14.459,-51.457 -47.906,-51.257 -34.042,0.261 -43.504,23.59 -42.912,52.638 0.655,28.521 3.548,57.105 2.627,85.231 -1.642,49.155 6.835,83.525 -71.564,100.351 54.871,-44.033 13.997,-77.284 -7.294,-109.485 -42.846,-64.928 -54.741,-130.315 -20.11,-201.745 15.839,-32.136 12.487,-68.278 6.966,-101.074 -9.069,-51.975 -44.815,-80.434 -100.806,-70.443 -57.043,10.119 -75.178,47.249 -62.89,101.136 9.726,42.582 33.45,78.07 55.859,114.934 46.853,77.151 71.891,80.961 71.299,296.445 40.352,95.154 96.865,66.632 123.742,160.017 20.175,70.184 -29.111,199.443 -29.833,251.819 -0.592,45.146 20.963,51.258 19.318,52.835 0,0 -61.115,12.486 -79.384,-213.839 -2.956,-35.024 -68.473,-47.181 -93.378,-18.594 -5.982,7.029 -22.082,35.616 -11.107,80.961 0.658,2.234 39.298,146.873 42.056,173.289 11.567,110.666 -47.707,125.056 -67.882,194.978 -18.992,65.779 -24.251,126.434 -24.251,126.434 -50.074,-22.734 -0.788,-112.832 15.247,-289.74 5.782,-63.938 -120.523,-234.997 -113.949,-392.45 0.588,-65.975 159.359,-185.317 93.839,-297.491 -10.316,-17.151 -49.943,-96.077 -103.304,-90.687 -51.324,4.533 -63.807,47.837 -63.349,69.854 1.906,83.985 7.754,194.056 -3.879,298.479 4.997,117.894 -56.644,198.92 20.375,294.669 122.623,153.244 16.758,327.523 -5.259,372.342 -20.306,41.927 -43.307,140.172 -50.139,190.573 -0.854,7.294 -10.845,187.093 -11.437,218.11 -0.854,33.516 -55.068,95.087 -59.604,95.087 -9.527,-1.247 33.845,-44.947 26.55,-102.186"
         id="path310" /></clipPath><clipPath
       clipPathUnits="userSpaceOnUse"
       id="clipPath320"><path
         d="m 5411.075,2917.748 c 9.266,1.183 18.467,2.102 27.667,2.43 5.914,0.198 11.302,-0.853 16.231,-2.626 0.92,0.786 1.775,1.708 2.826,2.495 8.411,6.377 17.284,11.631 26.484,16.168 -1.578,0.329 -3.156,0.589 -4.798,0.854 -27.535,4.665 -48.761,-4.994 -68.41,-19.321"
         id="path318" /></clipPath><clipPath
       clipPathUnits="userSpaceOnUse"
       id="clipPath328"><path
         d="m 5411.075,2917.548 h 73.207 v 24.187 h -73.207 z"
         id="path326" /></clipPath><linearGradient
       x1="0"
       y1="0"
       x2="1"
       y2="0"
       gradientUnits="userSpaceOnUse"
       gradientTransform="matrix(0,-2100.3411,-2100.3411,0,5447.6782,4702.1284)"
       spreadMethod="pad"
       id="linearGradient342"><stop
         style="stop-opacity:1;stop-color:#fbe912"
         offset="0"
         id="stop334" /><stop
         style="stop-opacity:1;stop-color:#fbe912"
         offset="0.0390244"
         id="stop336" /><stop
         style="stop-opacity:1;stop-color:#fbe912"
         offset="0.53419213"
         id="stop338" /><stop
         style="stop-opacity:1;stop-color:#e0b128"
         offset="1"
         id="stop340" /></linearGradient><clipPath
       clipPathUnits="userSpaceOnUse"
       id="clipPath352"><path
         d="m 5669.27,4567.529 c -0.458,-2.3 -14.587,-61.115 -23.264,-122.165 -4.402,-30.164 -7.489,-60.785 -6.965,-85.627 1.183,-43.962 5.85,-58.221 6.243,-97.915 0.33,-37.718 10.645,-69.396 18.73,-109.678 8.738,-52.508 46.329,-132.876 -27.535,-192.281 -107.51,57.171 -98.179,98.965 -96.076,197.078 3.287,54.018 9.462,214.821 -41.27,211.734 -5.782,-5.387 28.718,-68.736 0.658,-161.987 -31.544,-140.763 -34.304,-241.373 58.485,-388.639 179.205,-194.779 88.388,-510.673 75.443,-532.297 -18.795,-31.344 -68.278,-68.474 -107.775,-72.81 -48.233,-4.994 -97.387,8.346 -97.387,104.357 11.04,153.839 126.501,328.116 61.573,458.755 -4.402,-41.99 2.367,-70.381 -3.352,-88.715 -16.163,-51.454 -47.181,-93.51 -112.374,-86.151 -73.798,8.281 -54.08,69 -53.557,114.738 0.592,65.651 6.573,131.365 5.324,196.62 -1.315,63.546 -17.085,109.482 -75.377,119.735 84.512,-71.169 15.116,-229.874 -12.615,-335.677 -62.956,-242.292 -14.785,-441.604 186.564,-600.702 32.07,-25.301 71.96,-48.564 89.833,-85.693 23.724,-49.155 23.329,-107.117 -13.209,-151.537 -32.067,-39.037 -78.135,-42.648 -128.473,-32.27 -58.421,12.291 -85.759,51.981 -90.357,103.896 -4.141,45.149 1.246,91.086 0.654,136.428 -0.919,78.792 -4.994,157.126 -81.091,226.385 18.86,-74.518 38.839,-142.269 22.936,-204.568 -8.412,-33.12 -34.042,-52.311 -73.01,-49.42 -38.444,2.891 -42.847,34.566 -45.212,63.284 -5.127,59.738 -4.205,120.064 -13.539,178.946 -9.2,58.813 -26.023,117.367 -113.423,142.665 67.094,-63.218 77.017,-121.838 58.748,-187.156 -17.808,-62.891 -33.909,-129.72 -49.09,-193.399 -32.263,-134.652 -5.652,-219.883 110.731,-299.862 72.814,-49.941 154.958,-78.855 239.072,-104.351 171.453,-33.061 287.175,-50.801 636.913,1.246 35.948,12.094 72.155,23.328 107.575,37.064 282.051,109.744 369.716,353.482 218.637,608.918 -48.171,81.026 -100.61,159.821 -99.625,277.12 -57.501,-99.23 -25.63,-171.912 11.237,-244.134 23.263,-45.345 56.252,-87.662 47.579,-143.126 -4.405,-27.272 -14.459,-51.457 -47.906,-51.257 -34.042,0.261 -43.504,23.59 -42.912,52.638 0.655,28.521 3.548,57.105 2.627,85.231 -1.642,49.155 6.835,83.525 -71.564,100.351 54.871,-44.033 13.997,-77.284 -7.294,-109.485 -42.846,-64.928 -54.741,-130.315 -20.11,-201.745 15.839,-32.136 12.487,-68.278 6.966,-101.074 -9.069,-51.975 -44.815,-80.434 -100.806,-70.443 -57.043,10.119 -75.178,47.249 -62.89,101.136 9.726,42.582 33.45,78.07 55.859,114.934 46.853,77.151 71.891,80.961 71.299,296.445 40.352,95.154 96.865,66.632 123.742,160.017 20.175,70.184 -29.111,199.443 -29.833,251.819 -0.592,45.146 20.963,51.258 19.318,52.835 0,0 -61.115,12.486 -79.384,-213.839 -2.956,-35.024 -68.473,-47.181 -93.378,-18.594 -5.982,7.029 -22.082,35.616 -11.107,80.961 0.658,2.234 39.298,146.873 42.056,173.289 11.567,110.666 -47.707,125.056 -67.882,194.978 -18.992,65.779 -24.251,126.434 -24.251,126.434 -50.074,-22.734 -0.788,-112.832 15.247,-289.74 5.782,-63.938 -120.523,-234.997 -113.949,-392.45 0.588,-65.975 159.359,-185.317 93.839,-297.491 -10.316,-17.151 -49.943,-96.077 -103.304,-90.687 -51.324,4.533 -63.807,47.837 -63.349,69.854 1.906,83.985 7.754,194.056 -3.879,298.479 4.997,117.894 -56.644,198.92 20.375,294.669 122.623,153.244 16.758,327.523 -5.259,372.342 -20.306,41.927 -43.307,140.172 -50.139,190.573 -0.854,7.294 -10.845,187.093 -11.437,218.11 -0.854,33.516 -55.068,95.087 -59.604,95.087 -9.527,-1.247 33.845,-44.947 26.55,-102.186"
         id="path350" /></clipPath><clipPath
       clipPathUnits="userSpaceOnUse"
       id="clipPath360"><path
         d="m 5259.667,2623.606 c -40.743,10.974 -80.567,26.091 -115.592,48.696 -10.45,-14.719 -31.807,-21.75 -48.697,-17.15 -19.451,5.322 -29.768,20.961 -31.543,38.838 -30.228,3.217 -55.922,43.306 -31.674,74.322 -5.191,-2.695 -10.383,-5.454 -15.575,-8.017 -16.166,-8.151 -30.36,16.164 -14.194,24.25 8.74,4.4 17.415,8.936 25.892,13.601 -7.689,0.594 -15.246,1.708 -22.54,2.892 -5.257,0.854 -8.412,4.733 -9.595,9.265 -3.352,1.512 -5.783,4.076 -7.163,7.099 h -10.843 -10.777 c -4.534,0 -7.886,1.709 -10.12,4.336 V 2588.45 h 445.089 c -48.3,8.347 -98.113,17.348 -142.668,35.156"
         id="path358" /></clipPath><clipPath
       clipPathUnits="userSpaceOnUse"
       id="clipPath368"><path
         d="m 4957.245,2588.45 h 445.091 v 233.288 h -445.091 z"
         id="path366" /></clipPath><linearGradient
       x1="0"
       y1="0"
       x2="1"
       y2="0"
       gradientUnits="userSpaceOnUse"
       gradientTransform="matrix(0,-2063.3521,-2063.3521,0,5179.79,4670.9233)"
       spreadMethod="pad"
       id="linearGradient380"><stop
         style="stop-opacity:1;stop-color:#e0b128"
         offset="0"
         id="stop374" /><stop
         style="stop-opacity:1;stop-color:#e0b128"
         offset="0.51527607"
         id="stop376" /><stop
         style="stop-opacity:1;stop-color:#fbe912"
         offset="1"
         id="stop378" /></linearGradient><clipPath
       clipPathUnits="userSpaceOnUse"
       id="clipPath390"><path
         d="m 5642.697,4669.712 c -9.435,-1.314 33.863,-44.989 26.572,-102.184 v 0 c -0.458,-2.299 -14.587,-61.115 -23.263,-122.164 v 0 c -4.402,-30.164 -7.489,-60.786 -6.966,-85.627 v 0 c 1.184,-43.963 5.85,-58.222 6.244,-97.916 v 0 c 0.329,-37.717 10.645,-69.396 18.73,-109.677 v 0 c 8.738,-52.509 46.328,-132.876 -27.535,-192.281 v 0 c -107.51,57.17 -98.179,98.964 -96.076,197.078 v 0 c 3.286,54.019 9.461,214.821 -41.27,211.734 v 0 c -5.781,-5.386 28.718,-68.737 0.658,-161.987 v 0 c -31.545,-140.763 -34.305,-241.373 58.485,-388.638 v 0 c 179.205,-194.78 88.389,-510.675 75.442,-532.298 v 0 c -18.794,-31.345 -68.277,-68.473 -107.773,-72.811 v 0 c -48.234,-4.994 -97.388,8.347 -97.388,104.357 v 0 c 11.04,153.839 126.501,328.116 61.572,458.755 v 0 c -4.401,-41.99 2.369,-70.38 -3.352,-88.714 v 0 c -16.163,-51.455 -47.18,-93.51 -112.373,-86.151 v 0 c -73.798,8.281 -54.08,69.001 -53.556,114.738 v 0 c 0.59,65.65 6.572,131.365 5.323,196.62 v 0 c -1.315,63.546 -17.085,109.482 -75.378,119.735 v 0 c 84.513,-71.169 15.117,-229.875 -12.613,-335.677 v 0 c -62.695,-241.237 -15.117,-440.028 184.133,-598.728 v 0 c 4.993,6.964 12.353,12.683 22.343,16.097 v 0 c 168.164,56.649 353.744,2.238 523.027,-26.943 v 0 c 1.971,3.22 3.944,6.373 5.916,9.594 v 0 c 46.852,77.151 71.892,80.961 71.299,296.445 v 0 c 40.351,95.153 96.865,66.631 123.741,160.017 v 0 c 20.175,70.184 -29.111,199.443 -29.833,251.82 v 0 c -0.591,45.144 20.964,51.258 19.319,52.834 v 0 c 0,0 -61.115,12.486 -79.384,-213.84 v 0 c -2.956,-35.024 -68.473,-47.18 -93.378,-18.592 v 0 c -5.982,7.028 -22.083,35.614 -11.106,80.959 v 0 c 0.656,2.235 39.297,146.874 42.054,173.289 v 0 c 11.568,110.667 -47.707,125.056 -67.882,194.979 v 0 c -18.991,65.78 -24.25,126.433 -24.25,126.433 v 0 c -50.075,-22.733 -0.788,-112.831 15.246,-289.74 v 0 c 5.783,-63.937 -120.523,-234.997 -113.949,-392.45 v 0 c 0.589,-65.974 159.36,-185.316 93.84,-297.49 v 0 c -10.316,-17.151 -49.943,-96.077 -103.304,-90.687 v 0 c -51.324,4.534 -63.807,47.838 -63.35,69.855 v 0 c 1.907,83.984 7.755,194.055 -3.878,298.478 v 0 c 4.997,117.894 -56.644,198.919 20.374,294.668 v 0 c 122.623,153.246 16.759,327.525 -5.258,372.342 v 0 c -20.307,41.927 -43.308,140.172 -50.139,190.575 v 0 c -0.854,7.293 -10.846,187.092 -11.437,218.108 v 0 c -0.85,33.378 -54.62,94.578 -59.546,95.085 v 0 z M 6214.05,3319.464 c 23.263,-45.345 56.253,-87.662 47.578,-143.127 v 0 c -4.405,-27.271 -14.458,-51.456 -47.905,-51.257 v 0 c -34.043,0.263 -43.504,23.591 -42.911,52.638 v 0 c 0.653,28.522 3.547,57.106 2.626,85.232 v 0 c -1.643,49.155 6.834,83.525 -71.565,100.35 v 0 c 54.872,-44.032 13.998,-77.283 -7.293,-109.485 v 0 c -42.846,-64.928 -54.742,-130.314 -20.11,-201.745 v 0 c 3.482,-7.162 6.046,-14.458 7.884,-21.882 v 0 c 22.083,-10.254 44.162,-21.163 66.505,-32.728 v 0 c 65.652,-34.104 134.191,-62.693 189.131,-110.401 v 0 c 58.945,114.739 49.744,255.237 -35.553,399.418 v 0 c -48.169,81.026 -100.609,159.822 -99.624,277.12 v 0 c -57.502,-99.23 -25.631,-171.912 11.237,-244.133 m -1175.451,-82.602 c -17.807,-62.891 -33.908,-129.72 -49.089,-193.4 v 0 c -12.683,-53.034 -16.297,-98.376 -8.87,-138.789 v 0 c 35.419,19.777 76.689,30.03 116.447,23.263 v 0 c 3.614,1.904 7.164,3.874 10.778,5.779 v 0 c 7.754,15.709 19.518,28.85 37.786,31.149 v 0 c 6.44,0.857 12.749,-0.392 18.596,-3.019 v 0 c 0.199,0.063 0.331,0.127 0.461,0.196 v 0 c 35.354,16.428 76.231,35.88 117.04,42.255 v 0 c 0.788,20.829 1.708,41.662 1.443,62.43 v 0 c -0.92,78.791 -4.995,157.126 -81.091,226.385 v 0 c 18.86,-74.519 38.839,-142.269 22.936,-204.569 v 0 c -8.412,-33.12 -34.043,-52.31 -73.011,-49.42 v 0 c -38.443,2.892 -42.846,34.566 -45.211,63.284 v 0 c -5.127,59.738 -4.206,120.065 -13.54,178.947 v 0 c -9.198,58.813 -26.022,117.367 -113.422,142.664 v 0 c 67.093,-63.218 77.017,-121.837 58.747,-187.155"
         id="path388" /></clipPath><linearGradient
       x1="0"
       y1="0"
       x2="1"
       y2="0"
       gradientUnits="userSpaceOnUse"
       gradientTransform="matrix(0,-2062.1448,-2062.1448,0,5685.0752,4669.7119)"
       spreadMethod="pad"
       id="linearGradient402"><stop
         style="stop-opacity:1;stop-color:#e0b128"
         offset="0"
         id="stop396" /><stop
         style="stop-opacity:1;stop-color:#e0b128"
         offset="0.51527607"
         id="stop398" /><stop
         style="stop-opacity:1;stop-color:#fbe912"
         offset="1"
         id="stop400" /></linearGradient><clipPath
       clipPathUnits="userSpaceOnUse"
       id="clipPath412"><path
         d="m 5641.497,4686.866 -1.142,-0.13 c -7.885,0 -17.48,-12.549 -16.758,-18.73 v 0 c 4.732,-24.904 28.523,-45.668 28.653,-87.266 v 0 c 0,-3.616 -0.13,-7.36 -0.658,-11.043 v 0 c 0.199,-0.393 -14.324,-60.854 -23.132,-121.969 v 0 c -4.075,-28.454 -7.031,-57.828 -7.162,-82.668 v 0 c 0,-2.164 0.131,-4.074 0.131,-5.717 v 0 -0.13 c 1.119,-45.407 5.916,-59.538 6.178,-97.391 v 0 c 0.46,-41.136 11.434,-73.795 19.057,-113.096 v 0 h 0.066 c 5.258,-29.903 17.149,-63.943 16.888,-95.946 v 0 c -0.262,-25.889 -6.439,-49.413 -29.506,-71.76 v 0 c -71.826,42.254 -75.44,64.994 -77.084,122.557 v 0 c 0,14.985 0.656,32.466 1.118,52.311 v 0 c 0.987,15.577 2.168,40.351 2.168,67.489 v 0 c -4.533,65.259 4.337,150.093 -59.601,162.252 v 0 h -2.696 l -10.975,-4.533 c -6.504,-6.77 -5.981,-11.898 -6.309,-14.852 v 0 c 1.184,-17.48 12.357,-41.006 12.553,-84.97 v 0 c -0.196,-20.24 -2.565,-43.766 -10.515,-69.658 v 0 l -0.331,-1.448 c -12.024,-53.887 -20.041,-102.843 -20.041,-151.406 v 0 c -0.264,-79.184 21.949,-156.599 80.764,-249.585 v 0 l 1.906,-2.367 c 82.21,-89.112 105.473,-206.279 105.473,-307.549 v 0 c 0.722,-107.64 -28.521,-200.695 -32.07,-204.764 v 0 c -14.458,-26.091 -63.875,-62.368 -94.695,-64.47 v 0 c -4.995,-0.459 -9.988,-0.721 -14.523,-0.721 v 0 c -35.159,2.495 -59.999,8.013 -62.956,87.924 v 0 c 8.016,115.069 80.569,247.614 81.357,368.335 v 0 c 0,33.714 -6.048,66.965 -21.491,97.98 v 0 c -3.482,6.836 -11.171,10.846 -18.926,9.4 v 0 c -7.819,-1.318 -13.668,-7.558 -14.455,-15.115 v 0 c -1.513,-12.681 -1.841,-24.181 -1.841,-34.305 v 0 c 0,-13.602 0.591,-25.169 0.591,-34.042 v 0 c 0.197,-7.948 -0.395,-13.867 -1.51,-16.954 v 0 c -15.313,-45.469 -36.277,-74.91 -81.16,-74.979 v 0 c -3.944,0 -8.016,0.069 -12.421,0.721 v 0 c -39.229,6.707 -38.05,17.613 -40.676,46.596 v 0 c 0,15.378 2.496,33.185 2.626,51.06 v 0 c 0.658,58.419 5.587,117.627 5.587,177.892 v 0 c 0,6.436 0,12.88 -0.065,19.254 v 0 c 0,64.271 -20.242,124.333 -89.964,136.163 v 0 c -7.821,1.576 -15.771,-2.431 -19.123,-9.398 v 0 c -3.286,-7.031 -1.576,-15.38 4.271,-20.24 v 0 c 24.906,-21.162 34.435,-51.065 34.631,-89.771 v 0 c 0.196,-69.788 -34.172,-159.424 -52.573,-228.884 v 0 c -17.347,-66.568 -26.483,-130.05 -26.483,-190.968 v 0 c -0.261,-158.046 63.221,-297.034 201.353,-412.89 v 0 c 11.302,5.847 22.87,11.303 34.568,16.493 v 0 c -139.777,112.837 -200.303,242.95 -200.631,396.397 v 0 c 0,57.567 8.609,118.218 25.433,182.554 v 0 c 15.968,62.367 48.497,145.561 53.099,220.808 v 0 c 0,-0.33 0.066,-0.595 0.066,-0.987 v 0 c 0.064,-6.179 0.261,-12.29 0.261,-18.531 v 0 c 0,-58.158 -5.191,-117.435 -5.717,-177.629 v 0 c -0.066,-14.655 -2.63,-32.792 -2.63,-51.323 v 0 c -2.56,-33.123 15.773,-76.757 71.895,-80.763 v 0 c 5.648,-0.527 11.038,-0.926 16.493,-0.926 v 0 c 50.338,-0.063 82.079,28.789 100.873,64.538 v 0 c -12.616,-100.546 -70.248,-217.782 -78.857,-329.367 v 0 -1.051 c 0,-89.832 49.287,-122.23 98.375,-122.494 v 0 c 6.242,0 12.419,0.526 18.401,1.121 v 0 c 48.627,6.37 98.309,44.75 121.308,81.157 v 0 c 9.99,18.396 36.144,106.59 36.934,222.179 v 0 c -0.132,105.674 -24.118,230.993 -113.689,329.496 v 0 c -55.398,88.649 -74.456,157.521 -74.585,230.005 v 0 c 0,44.815 7.557,91.278 19.386,144.313 v 0 c 3.416,11.498 5.978,22.605 7.755,33.313 v 0 c 0.065,-4.334 0.131,-8.671 0.131,-13.011 v 0 c 0,-26.22 -1.118,-49.94 -1.974,-65.387 v 0 -0.722 c -0.526,-19.649 -1.248,-37.389 -1.248,-53.691 v 0 c -1.972,-64.203 17.35,-113.684 106.265,-158.964 v 0 l 19.713,2.107 c 39.163,30.883 51.65,70.645 51.259,106.06 v 0 c -0.135,39.825 -13.539,76.624 -17.548,102.123 v 0 l -0.067,0.462 c -8.409,41.596 -18.136,72.088 -18.465,106.786 v 0 c -0.393,41.465 -5.258,55.66 -6.11,97.978 v 0 -0.324 c -0.134,1.642 -0.134,3.415 -0.134,5.255 v 0 c 0,22.079 2.959,50.273 6.836,77.808 v 0 c 7.426,50.731 17.807,97.523 21.817,115.463 v 0 c 2.234,-54.218 10.055,-194.847 11.041,-203.853 v 0 c 7.292,-52.831 29.637,-150.092 51.785,-195.764 v 0 c 14.85,-30.032 61.639,-110.136 61.639,-201.091 v 0 c 0,-49.741 -13.668,-102.314 -54.611,-153.178 v 0 c -32.328,-40.222 -42.843,-80.566 -42.582,-119.34 v 0 c 0.196,-56.514 19.319,-109.875 18.926,-172.37 v 0 c 0,-4.271 0,-8.61 -0.265,-13.079 v 0 l 0.199,-2.564 c 5.257,-47.838 6.836,-97.256 6.836,-144.898 v 0 c 0,-54.414 -2.037,-106.332 -3.157,-151.278 v 0 -1.708 c -0.391,-12.815 3.484,-31.412 14.26,-48.17 v 0 c 38.641,-5.982 77.151,-14.325 116.253,-23.524 v 0 c 39.494,24.901 60.915,74.125 68.934,85.294 v 0 c 12.814,22.016 18.204,44.559 18.204,66.438 v 0 c -2.104,103.57 -114.016,200.697 -109.679,239.666 v 0 0.589 c -0.133,3.745 -0.133,7.556 -0.133,11.304 v 0 c -0.854,144.443 111.651,298.151 114.414,375.955 v 0 c 0,1.842 -0.135,4.013 -0.397,5.786 v 0 c -5.258,57.367 -13.801,105.934 -21.489,145.624 v 0 c 24.185,-62.691 65.52,-77.543 64.663,-151.668 v 0 c 0,-7.954 -0.328,-16.303 -1.314,-25.434 v 0 c -2.3,-22.078 -41.006,-168.363 -41.598,-170.794 v 0 c -2.956,-12.421 -4.337,-23.852 -4.206,-34.301 v 0 c 0.265,-32.334 11.303,-52.64 18.926,-61.645 v 0 c 14.194,-15.968 35.027,-22.012 54.217,-22.012 v 0 c 29.965,0 65.583,14.455 70.118,50.273 v 0 c 5.715,70.774 15.772,117.105 26.152,146.872 v 0 c 6.179,-51.849 33.713,-134.847 33.32,-196.159 v 0 c 0.066,-13.67 -1.445,-25.76 -4.205,-35.683 v 0 c -20.373,-82.536 -75.244,-53.231 -122.889,-158.176 v 0 l -1.249,-6.64 v -6.77 c -1.445,-209.301 -21.621,-201.089 -68.87,-280.537 v 0 c -0.13,-0.133 -0.196,-0.261 -0.326,-0.391 v 0 c 11.895,-3.16 23.656,-6.247 35.419,-9.664 v 0 c 42.715,66.834 70.446,89.767 69.066,290.592 v 0 3.88 c 24.841,60.723 62.956,61.97 94.169,101.197 v 0 c -2.038,-11.756 -3.153,-23.262 -3.153,-34.43 v 0 c 0,-54.477 22.214,-100.94 44.557,-144.971 v 0 c 21.949,-42.058 47.577,-77.673 47.18,-117.367 v 0 c 0,-5.056 -0.457,-10.185 -1.247,-15.505 v 0 c -5.781,-26.422 -8.807,-35.883 -29.834,-36.473 v 0 h -0.328 c -22.409,1.773 -22.935,7.559 -25.565,32.33 v 0 2.564 c 0.592,23.919 2.893,48.429 2.893,74.193 v 0 c 0,4.075 -0.133,8.016 -0.199,12.157 v 0 c 1.71,43.503 1.58,101.4 -85.497,116.579 v 0 c -7.95,1.84 -15.967,-2.104 -19.646,-9.265 v 0 c -3.551,-7.099 -1.71,-15.64 4.469,-20.765 v 0 c 17.942,-14.659 20.897,-24.119 21.159,-31.612 v 0 c 1.118,-13.275 -16.296,-33.251 -31.935,-55.595 v 0 c -26.945,-40.808 -43.044,-83.26 -43.044,-128.012 v 0 c 0,-18.203 2.693,-36.738 8.278,-55.464 v 0 c 14.72,-4.994 29.442,-10.319 43.766,-16.1 v 0 c -11.564,24.838 -16.689,48.696 -16.689,71.564 v 0 c 0,36.603 13.075,72.611 37.39,109.481 v 0 c 11.173,18.531 36.407,40.021 37.457,74.126 v 0 c 0,2.233 -0.196,4.468 -0.457,6.769 v 0 c 11.498,-12.552 6.309,-29.506 9.396,-62.89 v 0 c 0.13,-3.615 0.13,-7.296 0.13,-10.973 v 0 c 0,-23.658 -2.038,-48.105 -2.76,-73.468 v 0 -3.289 c -0.261,-30.164 16.953,-66.635 60.328,-66.635 v 0 h 0.854 c 44.817,-0.658 62.036,37.593 64.729,65.716 v 0 c 1.116,7.1 1.578,13.866 1.578,20.567 v 0 c -0.33,53.956 -31.412,94.3 -50.866,132.878 v 0 c -22.078,43.306 -40.742,84.514 -40.742,129.46 v 0 c 0,10.118 0.921,20.567 3.025,31.343 v 0 c 16.165,-83.327 58.09,-147.592 95.022,-210.221 v 0 c 48.169,-81.225 71.038,-160.408 71.038,-233.42 v 0 c -0.131,-50.471 -10.975,-98.376 -32.331,-142.474 v 0 c 8.873,-11.102 16.166,-22.669 21.356,-34.891 v 0 c 30.493,53.953 46.333,113.881 46.264,177.365 v 0 c 0,80.106 -24.97,165.01 -75.704,250.44 v 0 c -48.037,81.289 -97.258,155.35 -97.258,265.491 v 0 3.02 c 0.132,7.758 -5.257,14.922 -13.009,16.891 v 0 c -6.313,1.574 -12.752,-0.392 -17.023,-4.663 v 0 c 0.461,5.847 0.722,11.692 0.722,17.741 v 0 c -0.393,75.703 -34.761,173.948 -34.761,211.799 v 0 1.776 c 0.59,27.531 8.149,32.264 10.579,34.962 v 0 c 0.919,4.333 1.709,0 8.939,15.636 v 0 c 0.195,4.867 -3.091,10.713 -6.114,13.082 v 0 l -8.215,3.809 c -0.788,0.26 -2.76,0.525 -5.255,0.525 v 0 c -26.813,-1.645 -79.253,-25.824 -95.223,-229.738 v 0 c 0,-7.36 -14.654,-18.795 -34.959,-18.667 v 0 c -12.093,0 -22.409,4.074 -27.273,9.922 v 0 c -1.247,1.252 -10.712,15.972 -10.647,39.565 v 0 c 0,7.948 0.987,16.689 3.418,26.283 v 0 0.265 c 0.46,2.236 38.971,145.1 42.189,175.263 v 0 c 1.118,10.12 1.646,19.649 1.646,28.718 v 0 c -0.79,95.22 -56.453,117.956 -69.989,172.432 v 0 c -18.664,64.14 -23.789,123.09 -23.789,123.483 v 0 c -0.526,5.456 -3.811,10.445 -8.674,13.271 v 0 c -5.125,2.829 -11.107,3.222 -16.431,0.658 v 0 c -23.789,-10.316 -32.659,-34.763 -31.935,-58.617 v 0 c 0.395,-51.453 26.614,-129.131 37.195,-248.14 v 0 l 0.064,-2.829 c 2.762,-52.833 -113.621,-219.224 -114.345,-375.955 v 0 c 0,-4.204 0.066,-8.475 0.265,-12.615 v 0 h 0.066 c 5.717,-70.383 111.651,-155.681 109.678,-238.944 v 0 c -0.197,-16.493 -4.009,-32.656 -13.802,-49.413 v 0 c -8.804,-18.599 -49.877,-86.088 -82.669,-82.607 v 0 l -3.35,0.329 c -38.51,3.287 -46.46,33.843 -47.383,51.653 v 0 l 0.066,0.982 c 0.987,44.425 3.025,96.737 3.025,152.004 v 0 c 0,47.38 -1.579,97.124 -6.9,146.214 v 0 c 0.13,4.735 0.196,9.595 0.196,14.327 v 0 c -0.066,68.805 -19.388,124.003 -18.992,172.37 v 0 c 0.262,33.447 7.558,63.349 35.287,98.179 v 0 c 46.003,57.237 61.907,118.549 61.907,174.339 v 0 c 0,101.731 -51.456,187.882 -64.993,215.814 v 0 c -18.86,37.522 -42.388,136.882 -48.763,185.515 v 0 c -0.656,4.335 -10.776,186.694 -11.368,216.069 v 0 c -9.987,49.149 -45.005,98.756 -77.072,111.845 v 0 z"
         id="path410" /></clipPath><linearGradient
       x1="0"
       y1="0"
       x2="1"
       y2="0"
       gradientUnits="userSpaceOnUse"
       gradientTransform="matrix(-1451.8843,0,0,1451.8843,6402.6577,3776.9402)"
       spreadMethod="pad"
       id="linearGradient424"><stop
         style="stop-opacity:1;stop-color:#e0b128"
         offset="0"
         id="stop418" /><stop
         style="stop-opacity:1;stop-color:#e0b128"
         offset="0.51527607"
         id="stop420" /><stop
         style="stop-opacity:1;stop-color:#fbe912"
         offset="1"
         id="stop422" /></linearGradient><clipPath
       clipPathUnits="userSpaceOnUse"
       id="clipPath434"><path
         d="m 4964.54,3432.56 c -4.01,-6.836 -2.761,-15.505 3.087,-20.827 v 0 c 45.607,-43.506 61.115,-81.031 61.38,-120.722 v 0 c 0,-15.904 -2.499,-32.201 -7.427,-49.616 v 0 c -17.807,-63.283 -34.038,-130.381 -49.286,-194.056 v 0 c -8.477,-35.486 -13.078,-68.085 -13.078,-98.704 v 0 c -0.197,-27.007 3.682,-52.177 11.567,-75.967 v 0 c 3.483,1.444 6.901,2.958 10.318,4.4 v 0 c -11.237,3.16 -15.707,18.795 -4.01,25.568 v 0 c 6.506,3.807 13.276,7.29 20.177,10.378 v 0 c -1.776,11.372 -2.761,23.2 -2.826,35.621 v 0 c 0,27.204 4.205,57.371 12.222,91.082 v 0 c 15.312,63.547 31.412,130.178 48.893,192.742 v 0 c 5.583,19.453 8.804,38.971 8.804,58.552 v 0 c 0.065,22.079 -4.272,44.027 -13.668,65.717 v 0 c 14.456,-22.083 19.976,-48.498 25.17,-77.939 v 0 c 9.001,-57.044 8.082,-117.171 13.271,-177.893 v 0 c 1.053,-26.877 9.072,-74.848 61.576,-78.99 v 0 c 3.023,-0.263 5.916,-0.263 8.742,-0.263 v 0 c 41.925,-0.854 74.126,25.696 82.735,62.759 v 0 c 4.404,17.481 6.308,35.154 6.308,52.966 v 0 c -0.132,26.68 -4.206,53.625 -10.054,81.029 v 0 c 24.38,-47.186 26.353,-97.522 27.011,-151.936 v 0 c 0.195,-2.168 0.195,-4.137 0.195,-6.505 v 0 c 0,-15.048 -0.591,-30.428 -1.183,-46.002 v 0 c 0.988,0.722 1.972,1.514 2.956,2.236 v 0 c 10.845,8.147 21.883,16.166 33.186,23.921 v 0 c 0.199,6.571 0.265,13.206 0.265,19.845 v 0 6.968 c -0.658,78.594 -5.194,164.878 -86.81,238.673 v 0 c -5.652,5.196 -14.261,6.05 -20.896,2.234 v 0 c -6.836,-3.676 -10.188,-11.431 -8.217,-18.923 v 0 c 14.195,-55.595 28.323,-106.394 28.258,-151.54 v 0 c 0,-15.443 -1.642,-30.361 -5.389,-44.619 v 0 c -7.228,-24.711 -20.503,-36.014 -48.365,-36.8 v 0 h -6.046 c -24.183,2.103 -25.17,17.151 -28.98,47.838 v 0 c -5.128,58.358 -4.272,119.077 -13.671,180.192 v 0 c -8.147,59.208 -30.228,129.854 -125.909,156.27 v 0 c -1.708,0.527 -3.418,0.79 -5.124,0.79 v 0 c -6.114,0 -11.962,-3.155 -15.182,-8.479"
         id="path432" /></clipPath><linearGradient
       x1="0"
       y1="0"
       x2="1"
       y2="0"
       gradientUnits="userSpaceOnUse"
       gradientTransform="matrix(-1451.6191,0,0,1451.6191,6402.3467,3156.8525)"
       spreadMethod="pad"
       id="linearGradient446"><stop
         style="stop-opacity:1;stop-color:#e0b128"
         offset="0"
         id="stop440" /><stop
         style="stop-opacity:1;stop-color:#e0b128"
         offset="0.51527607"
         id="stop442" /><stop
         style="stop-opacity:1;stop-color:#fbe912"
         offset="1"
         id="stop444" /></linearGradient><clipPath
       clipPathUnits="userSpaceOnUse"
       id="clipPath456"><path
         d="m 4382.895,2045.507 c 0.46,0 0.984,0.068 1.576,0.068 v 0 c 94.63,586.509 719.451,996.769 1425.562,924.154 v 0 c 560.813,-57.765 1008.73,-403.163 1156.391,-840.04 v 0 c 6.573,4.209 14.128,7.296 22.935,8.742 v 0 c -125.909,481.102 -585.852,866.522 -1169.534,926.649 v 0 c -52.245,5.325 -104.028,7.951 -155.22,7.951 v 0 c -0.04,0 -0.115,0 -0.156,0 v 0 C 5004.984,3073.046 4447.816,2637.7 4382.895,2045.507"
         id="path454" /></clipPath><linearGradient
       x1="0"
       y1="0"
       x2="1"
       y2="0"
       gradientUnits="userSpaceOnUse"
       gradientTransform="matrix(2608.8958,-40.024902,-40.024902,2223.7209,4373.2832,2579.4426)"
       spreadMethod="pad"
       id="linearGradient468"><stop
         style="stop-opacity:1;stop-color:#e0b128"
         offset="0"
         id="stop462" /><stop
         style="stop-opacity:1;stop-color:#e0b128"
         offset="0.51527607"
         id="stop464" /><stop
         style="stop-opacity:1;stop-color:#fbe912"
         offset="1"
         id="stop466" /></linearGradient><clipPath
       clipPathUnits="userSpaceOnUse"
       id="clipPath478"><path
         d="M 0,8503.937 H 11338.583 V 0 H 0 Z"
         id="path476" /></clipPath></defs><g
     id="g472"
     transform="matrix(0.35277776,0,0,-0.35277778,-1430.4766,2377.8116)"><g
       id="g474"
       clip-path="url(#clipPath478)"><g
         id="g142"
         transform="matrix(0.77679012,0,0,0.77679012,1339.3779,971.44618)"><g
           id="g144"
           clip-path="url(#clipPath148)"><g
             id="g150"
             transform="translate(6366.6216,5889.5635)"><path
               d="m 0,0 c 32.463,473.343 51.98,833.137 57.106,1087.126 0.658,37.787 0.986,75.702 1.708,113.622 71.828,-14.131 119.866,-24.973 143.983,-30.099 10.909,-2.563 55.004,-11.038 131.431,-28.979 C 323.713,1018.189 314.842,900.167 307.35,788.318 297.756,632.509 290.133,486.227 284.284,349.866 278.436,213.31 274.492,96.6 272.062,0 230.726,0.589 189.72,1.051 148.516,1.576 124.465,1.576 74.915,1.051 0,0"
               style="fill:#e0b128;fill-opacity:1;fill-rule:nonzero;stroke:none"
               id="path152" /></g><g
             id="g154"
             transform="translate(6670.0747,5889.5635)"><path
               d="m 0,0 c 49.154,82.601 109.219,184.066 179.6,298.478 70.446,114.212 124.99,198.261 163.302,259.248 -22.212,54.869 -44.357,111.123 -66.438,168.295 -12.551,30.952 -30.492,74.455 -53.821,132.22 -19.189,45.669 -37.852,92.328 -56.91,139.248 -13.865,35.357 -29.636,75.506 -47.051,121.051 51.849,-15.25 104.75,-31.547 158.505,-48.633 42.649,-13.601 88.058,-28.125 136.031,-44.686 16.166,-49.744 35.092,-103.631 57.303,-160.871 22.146,-57.172 39.693,-105.408 52.507,-145.429 16.56,28.522 38.772,63.024 66.767,101.136 27.797,38.577 51.98,73.537 72.681,105.672 40.546,-18.466 84.575,-39.034 131.562,-61.836 30.557,-14.789 73.797,-35.622 128.933,-64.075 C 896.225,773.731 856.336,735.482 801.2,676.602 746.131,617.785 692.376,550.297 640.921,477.683 702.233,338.76 785.823,168.624 897.146,0 833.532,0.722 785.823,1.312 753.951,1.312 701.116,1.312 648.544,0.918 596.629,0 581.843,36.8 560.88,84.246 533.87,144.113 507.059,203.912 483.861,261.084 464.409,313.527 448.047,281.195 421.301,235.454 383.975,173.946 346.647,112.238 313.462,53.754 284.744,0 226.126,0.918 179.6,1.576 145.493,1.576 107.642,1.576 59.078,1.051 0,0"
               style="fill:#e0b128;fill-opacity:1;fill-rule:nonzero;stroke:none"
               id="path156" /></g><g
             id="g158"
             transform="translate(5463.7134,3113.7947)"><path
               d="M 0,0 C -3.614,2.889 -7.098,5.849 -10.646,8.805 -20.307,5.059 -29.77,1.115 -39.298,-2.96 -26.155,-1.841 -13.078,-0.854 0,0"
               style="fill:#294191;fill-opacity:1;fill-rule:nonzero;stroke:none"
               id="path160" /></g><g
             id="g162"
             transform="translate(5786.9272,3145.2732)"><path
               d="m 0,0 c 6.177,-8.086 14.26,-15.446 24.446,-21.098 4.14,-0.786 8.28,-1.576 12.486,-2.495 11.172,-2.434 22.212,-5.258 33.252,-8.282 4.008,0.329 7.885,0.922 11.631,1.708 C 54.544,-20.175 27.206,-10.252 0,0"
               style="fill:#294191;fill-opacity:1;fill-rule:nonzero;stroke:none"
               id="path164" /></g><g
             id="g166"
             transform="translate(6345.8296,2876.8328)"><path
               d="m 0,0 c -2.038,-3.485 -4.141,-6.835 -6.375,-10.32 0.329,-0.261 0.657,-0.59 0.92,-0.855 4.141,-3.81 7.098,-8.017 9.2,-12.418 5.126,-3.814 10.252,-7.624 15.377,-11.503 2.826,4.144 5.521,8.415 8.149,12.618 C 18.269,-14.788 9.2,-7.296 0,0"
               style="fill:#294191;fill-opacity:1;fill-rule:nonzero;stroke:none"
               id="path168" /></g><g
             id="g170"
             transform="translate(5974.2886,3076.1287)"><path
               d="m 0,0 c -0.789,-1.315 -1.512,-2.563 -2.301,-3.814 10.843,-4.533 21.555,-9.266 32.332,-14.127 0.986,1.709 2.037,3.417 3.089,5.126 C 22.08,-8.479 11.04,-4.208 0,0"
               style="fill:#294191;fill-opacity:1;fill-rule:nonzero;stroke:none"
               id="path172" /></g><g
             id="g174"
             transform="translate(5456.3667,5253.0107)"><path
               d="M 0,0 C 32.791,17.151 62.691,10.709 96.93,1.444 63.48,-38.577 33.646,-42.191 0,0"
               style="fill:#294191;fill-opacity:1;fill-rule:evenodd;stroke:none"
               id="path176" /></g><g
             id="g178"
             transform="translate(3787.8088,5889.5635)"><path
               d="m 0,0 c 8.608,79.38 14.26,144.113 17.349,193.135 4.534,72.353 8.871,172.242 12.551,300.187 3.878,128.145 5.652,214.954 5.52,258.854 -0.066,21.948 -0.262,43.964 -0.262,66.108 111.979,57.172 218.897,104.946 318.982,145.954 101.333,40.876 200.103,76.954 296.047,108.561 -3.155,-122.559 -4.272,-201.875 -3.351,-239.072 -17.284,-3.482 -34.698,-7.096 -52.113,-10.906 -13.8,-3.289 -27.797,-6.771 -41.597,-10.384 -13.998,-3.418 -27.798,-7.1 -41.598,-10.518 -38.904,-11.038 -77.676,-22.473 -116.184,-34.498 -13.407,-3.942 -52.376,-16.296 -116.186,-38.901 -0.92,-53.495 -1.576,-107.053 -2.496,-160.218 28.651,6.638 56.974,13.012 85.364,19.389 31.872,7.818 64.006,15.442 95.747,22.538 27.798,6.309 70.118,16.693 127.356,30.098 -1.906,-97.651 -1.906,-173.554 -0.592,-228.162 -64.203,-6.045 -111.65,-12.025 -142.536,-16.562 -52.441,-7.821 -109.35,-18.137 -170.86,-30.687 -0.526,-81.684 -1.052,-163.37 -1.642,-244.528 0.459,-30.358 0.722,-60.328 1.116,-90.819 C 270.878,19.778 271.009,9.919 271.141,0 227.9,0.393 184.792,0.918 141.353,1.312 131.365,1.312 84.378,0.722 0,0"
               style="fill:#294191;fill-opacity:1;fill-rule:nonzero;stroke:none"
               id="path180" /></g><g
             id="g182"
             transform="translate(4780.6362,7165.8452)"><path
               d="m 0,0 c 6.899,25.694 13.8,51.06 20.896,76.621 5.324,18.402 11.238,39.628 17.613,64.532 5.979,21.555 12.025,43.374 17.677,65.19 42.254,9.791 83.129,18.663 123.413,27.403 33.581,7.36 75.376,16.428 125.779,26.877 -17.481,-32.132 -35.223,-64.464 -52.638,-96.6 -4.074,-7.295 -13.077,-24.707 -27.14,-52.114 C 211.536,84.113 199.38,60.457 188.865,40.743 149.37,34.366 116.841,28.454 91.409,22.734 71.761,18.531 41.071,11.103 0,0 m -237.627,-1276.258 c 6.505,138.197 10.909,254.711 13.011,348.948 2.169,93.84 3.483,219.487 3.878,376.351 0.525,156.667 0.197,261.02 -1.183,311.686 -0.855,24.054 -1.512,47.578 -2.234,71.567 94.564,25.823 210.288,54.477 347.831,80.961 126.895,24.315 239.729,40.479 337.842,52.375 -0.329,-10.055 -0.658,-20.11 -0.986,-30.034 -0.262,-7.291 -0.986,-33.776 -1.906,-79.384 -0.92,-32.858 -1.708,-65.844 -2.366,-98.902 -0.591,-21.29 -0.722,-42.909 -0.526,-64.596 -79.581,-1.905 -146.347,-7.557 -200.037,-13.999 -59.209,-7.689 -98.967,-13.801 -119.601,-17.086 -20.57,-3.482 -52.704,-9.658 -96.339,-19.449 -0.855,-66.044 -1.775,-132.285 -2.825,-198.397 48.038,4.468 104.027,10.713 168.23,17.612 22.737,2.302 83.59,11.042 182.558,23.396 -2.761,-77.412 -5.324,-169.415 -7.426,-275.937 -70.315,-2.563 -124.399,-5.455 -162.054,-8.215 -55.925,-3.814 -118.419,-10.713 -187.552,-20.504 -0.854,-69.726 -1.643,-139.055 -2.299,-208.645 23.197,1.312 46.262,2.234 69.591,3.285 20.503,0.919 63.087,3.678 127.751,7.817 41.927,3.089 83.59,6.049 125.319,8.873 18.598,1.183 49.681,4.404 93.382,9.662 -3.615,-89.504 -6.309,-182.097 -8.149,-277.385 -98.179,1.051 -205.689,1.576 -322.794,1.576 -88.321,-0.328 -176.773,-0.525 -265.489,-0.854 -28.455,-0.196 -56.975,-0.589 -85.627,-0.722"
               style="fill:#294191;fill-opacity:1;fill-rule:nonzero;stroke:none"
               id="path184" /></g><g
             id="g186"
             transform="translate(5356.0581,5889.5635)"><path
               d="m 0,0 c 3.352,64.135 6.835,128.338 10.187,192.609 5.716,218.111 11.433,436.283 17.676,654.855 1.447,88.124 2.826,176.377 4.404,264.173 -0.658,47.974 -0.986,95.749 -1.512,143.459 64.795,3.614 122.165,5.583 172.043,7.292 35.421,1.051 85.56,2.695 149.962,3.81 89.11,-240.452 176.38,-483.467 261.612,-724.247 11.566,-35.421 23.329,-70.842 35.092,-105.866 5.52,102.777 11.698,246.762 18.4,431.879 6.506,185.253 10.515,313.266 11.107,384.369 51.389,-5.452 92.066,-10.449 123.15,-13.734 13.668,-1.841 54.675,-5.455 121.441,-13.669 C 917.188,1136.544 910.88,1047.762 904.506,959.177 891.165,712.091 877.956,464.078 865.076,215.279 862.514,143.652 860.279,71.892 857.848,0 805.669,1.051 756.712,1.837 711.105,1.837 673.385,1.837 620.944,1.312 554.111,0 533.543,60.457 518.297,104.224 508.505,131.431 475.056,219.29 441.278,307.744 407.369,395.996 373.789,482.741 342.574,565.739 313.922,644.863 295.062,695.004 275.479,750.006 255.041,809.741 250.967,663 247.09,516.521 243.081,369.973 241.372,246.561 239.598,123.28 237.955,0 188.077,1.312 150.159,1.837 124.137,1.837 102.056,1.837 60.59,1.312 0,0"
               style="fill:#294191;fill-opacity:1;fill-rule:nonzero;stroke:none"
               id="path188" /></g><g
             id="g190"
             transform="translate(6369.3159,5889.5635)"><path
               d="m 0,0 c 32.463,473.343 51.914,833.137 57.04,1087.126 0.658,37.787 1.249,75.702 1.841,113.622 72.023,-14.131 119.732,-24.973 143.916,-30.099 11.04,-2.563 55.004,-11.038 131.233,-28.979 C 323.713,1018.189 314.842,900.167 307.547,788.318 297.756,632.509 290.133,486.227 284.284,349.866 278.501,213.31 274.427,96.6 272.062,0 230.924,0.589 189.917,1.051 148.516,1.576 124.465,1.576 74.981,1.051 0,0"
               style="fill:#294191;fill-opacity:1;fill-rule:nonzero;stroke:none"
               id="path192" /></g><g
             id="g194"
             transform="translate(6675.4634,5889.5635)"><path
               d="m 0,0 c 48.958,82.601 109.087,184.066 179.468,298.478 70.578,114.212 124.925,198.261 163.303,259.248 -22.211,54.869 -44.292,111.123 -66.504,168.295 -12.552,30.952 -30.294,74.455 -53.755,132.22 -18.861,45.669 -37.917,92.328 -56.844,139.248 -13.865,35.357 -29.703,75.506 -47.314,121.051 52.177,-15.25 104.88,-31.547 158.636,-48.633 42.715,-13.601 88.058,-28.125 135.965,-44.686 16.297,-49.744 35.42,-103.631 57.369,-160.871 22.146,-57.172 39.758,-105.408 52.572,-145.429 16.626,28.522 38.969,63.024 66.833,101.136 27.469,38.577 51.916,73.537 72.681,105.672 40.415,-18.466 84.444,-39.034 131.43,-61.836 30.492,-14.789 73.799,-35.622 128.934,-64.075 C 896.291,773.731 855.94,735.482 801.069,676.602 746,617.785 692.245,550.297 640.921,477.683 702.103,338.76 785.823,168.624 897.013,0 833.401,0.722 785.823,1.312 754.018,1.312 700.985,1.312 648.412,0.918 596.432,0 581.777,36.8 560.683,84.246 533.674,144.113 506.928,203.912 483.73,261.084 464.344,313.527 447.915,281.195 421.104,235.454 383.843,173.946 346.517,112.238 313.527,53.754 284.612,0 225.995,0.918 179.468,1.576 145.56,1.576 107.575,1.576 58.946,1.051 0,0"
               style="fill:#294191;fill-opacity:1;fill-rule:nonzero;stroke:none"
               id="path196" /></g><g
             id="g198"
             transform="translate(7405.2319,4958.6758)"><path
               d="m 0,0 c -111.585,-92.661 -249.455,-104.356 -386.604,-116.778 -58.158,-5.191 -306.167,20.636 -336.527,12.157 26.681,-28.39 537.288,-75.045 740.677,-21.816 -79.648,-147.137 -201.286,-209.7 -351.248,-212.917 -246.958,-5.062 -538.012,95.549 -556.018,96.536 19.255,-0.726 258.262,-156.599 693.165,-116.975 -77.675,-109.94 -178.877,-146.941 -300.91,-154.169 -161.66,-9.659 -473.807,111.52 -574.221,159.427 77.216,-58.817 372.87,-219.491 615.227,-194.519 -74.258,-69.265 -151.999,-87.727 -229.937,-105.736 -156.863,-32.397 -450.347,146.808 -556.346,224.352 27.6,-33.251 145.626,-240.123 427.018,-264.634 -146.216,-94.433 -289.936,-53.951 -416.306,34.959 -78.004,55.006 -113.359,148.782 -187.223,175.066 30.755,-100.807 136.425,-199.116 197.868,-256.091 -239.926,-29.18 -221.592,182.49 -248.731,140.303 -7.755,-108.167 -109.088,-172.635 -109.088,-172.635 -22.147,8.018 -54.018,257.406 -58.356,365.637 -5.716,142.409 -32.134,190.841 -228.163,157.655 73.93,-85.694 67.753,-183.742 34.041,-280.409 -10.974,-31.542 -10.843,-34.763 -47.315,-20.633 -28.258,11.235 -66.439,27.467 -96.142,20.633 -84.575,-18.727 -18.071,-51.982 -19.78,-62.76 -24.84,-159.688 -232.632,-158.569 -261.284,-158.569 116.842,77.151 184.068,188.997 224.878,291.512 -199.577,-229.346 -375.037,-377.14 -608.261,-232.959 226.587,25.036 335.806,156.599 431.815,272.587 -314.513,-244.266 -528.417,-323.189 -791.803,-138.462 344.939,2.363 511.396,152.721 620.878,208.052 -485.373,-198.983 -716.428,-232.498 -901.482,-9.987 221.92,-63.943 669.507,88.06 745.802,124.792 -62.823,5.323 -752.703,-254.975 -925.468,68.608 -3.746,6.966 -13.669,13.801 -22.475,35.356 195.832,-36.211 671.085,-28.915 793.512,25.694 0,0 -455.472,-40.811 -650.712,35.156 -40.415,15.574 -267.002,157.782 -275.873,267.398 200.826,-93.644 396.132,-98.967 455.604,-108.629 173.094,-26.813 465.922,-6.835 476.567,-9.659 -173.159,0 -584.603,69.723 -746.657,147.792 -113.03,54.151 -205.426,129.461 -228.295,276.663 236.115,-128.082 584.472,-213.314 838.133,-244.989 -412.561,134.652 -731.74,219.884 -862.907,559.503 326.933,-194.848 694.545,-281.789 1055.585,-380.691 195.436,-53.49 298.346,-154.169 315.433,-354.796 15.575,-180.127 143.654,-280.409 310.175,-269.631 118.815,7.295 197.409,43.57 206.479,161.199 3.35,76.036 -40.745,99.953 -64.336,99.953 -62.035,0 -199.248,-53.622 -276.399,-11.367 0,0 99.624,-8.347 177.892,39.167 17.678,10.512 13.931,29.308 -12.552,43.699 -91.805,50.009 -114.607,-36.536 -114.607,-36.536 -99.428,140.303 89.635,192.153 95.879,191.888 14.259,-0.265 6.374,56.911 124.727,59.932 83.786,2.17 94.433,-21.487 103.633,-18.138 51.718,19.321 123.085,-8.937 139.974,-4.272 13.997,3.943 -60.788,-59.141 -55.202,-65.318 97.062,-108.299 110.534,-198.265 110.534,-198.265 12.223,-17.415 16.363,-45.869 29.9,-74.391 12.749,-37.522 22.606,-76.753 38.903,-112.964 46.593,-102.319 142.406,-120.717 226.455,-43.439 59.407,54.614 91.476,124.139 107.117,201.619 5.126,25.036 10.448,50.465 11.302,75.899 6.572,176.184 115.397,262.271 277.976,306.496 239.269,64.925 477.881,132.22 710.184,218.307 C -35.421,692.702 90.621,745.67 210.88,834.384 191.56,705.453 117.235,624.949 26.286,556.146 -149.634,424.057 -448.376,303.668 -674.567,256.419 -397.644,257.667 -3.943,378.649 181.637,500.947 174.539,385.945 110.861,305.245 25.892,252.345 -146.151,144.639 -513.762,101.593 -713.143,81.879 -338.105,35.814 111.912,156.796 150.553,205.228 150.553,205.228 80.04,35.814 0,0"
               style="fill:#e0b128;fill-opacity:1;fill-rule:evenodd;stroke:none"
               id="path200" /></g></g></g><g
         id="g202"
         transform="matrix(0.77679012,0,0,0.77679012,1339.3779,971.44618)"><g
           id="g204"
           clip-path="url(#clipPath208)"><g
             id="g210"><g
               id="g212"
               clip-path="url(#clipPath216)"><g
                 id="g218"><g
                   id="g220"
                   clip-path="url(#clipPath224)"><g
                     id="g226"><g
                       id="g228"><path
                         d="m 5944.551,2588.45 h 131.628 v 24.446 h -131.628 z"
                         style="fill:url(#linearGradient238);stroke:none"
                         id="path240" /></g></g></g></g></g></g></g></g><g
         id="g242"
         transform="matrix(0.77679012,0,0,0.77679012,1339.3779,971.44618)"><g
           id="g244"
           clip-path="url(#clipPath248)"><g
             id="g250"><g
               id="g252"
               clip-path="url(#clipPath256)"><g
                 id="g258"><g
                   id="g260"
                   clip-path="url(#clipPath264)"><g
                     id="g266"><g
                       id="g268"><path
                         d="m 4957.245,2588.45 h 346.057 v 233.288 h -346.057 z"
                         style="fill:url(#linearGradient278);stroke:none"
                         id="path280" /></g></g></g></g></g></g></g></g><g
         id="g282"
         transform="matrix(0.77679012,0,0,0.77679012,1339.3779,971.44618)"><g
           id="g284"
           clip-path="url(#clipPath288)"><g
             id="g290"><g
               id="g292"><path
                 d="m 5642.697,4669.711 c -9.436,-1.312 33.862,-44.988 26.572,-102.183 v 0 c -0.457,-2.299 -14.586,-61.114 -23.263,-122.164 v 0 c -4.402,-30.164 -7.49,-60.785 -6.966,-85.627 v 0 c 1.185,-43.962 5.85,-58.221 6.244,-97.915 v 0 c 0.33,-37.718 10.645,-69.396 18.73,-109.678 v 0 c 8.737,-52.507 46.329,-132.875 -27.535,-192.281 v 0 c -107.509,57.171 -98.179,98.965 -96.076,197.078 v 0 c 3.286,54.018 9.462,214.82 -41.27,211.733 v 0 c -5.783,-5.387 28.718,-68.735 0.657,-161.986 v 0 c -31.543,-140.763 -34.303,-241.373 58.486,-388.639 v 0 c 179.206,-194.779 88.389,-510.673 75.443,-532.297 v 0 c -18.795,-31.344 -68.277,-68.474 -107.776,-72.811 v 0 c -48.233,-4.993 -97.387,8.346 -97.387,104.357 v 0 c 11.042,153.839 126.501,328.117 61.573,458.756 v 0 c -4.402,-41.991 2.367,-70.382 -3.352,-88.716 v 0 c -16.163,-51.453 -47.179,-93.508 -112.374,-86.15 v 0 c -73.797,8.28 -54.08,69.001 -53.557,114.737 v 0 c 0.593,65.652 6.573,131.366 5.324,196.621 v 0 c -1.315,63.546 -17.085,109.483 -75.376,119.734 v 0 c 84.512,-71.168 15.115,-229.874 -12.615,-335.676 v 0 C 5175.223,3454.313 5223.393,3255 5424.743,3095.901 v 0 c 5.194,-4.074 10.515,-8.08 15.97,-12.091 v 0 c 118.485,52.245 252.611,66.44 383.121,37.856 v 0 c 47.51,-10.386 93.051,-26.288 137.671,-44.819 v 0 c 4.009,6.568 8.084,13.138 12.093,19.777 v 0 c 46.854,77.151 71.893,80.961 71.3,296.444 v 0 c 40.352,95.156 96.864,66.633 123.742,160.017 v 0 c 20.175,70.185 -29.111,199.444 -29.834,251.821 v 0 c -0.592,45.145 20.964,51.258 19.319,52.834 v 0 c 0,0 -61.115,12.487 -79.385,-213.839 v 0 c -2.955,-35.024 -68.472,-47.181 -93.378,-18.594 v 0 c -5.981,7.029 -22.081,35.616 -11.106,80.961 v 0 c 0.657,2.233 39.298,146.874 42.055,173.289 v 0 c 11.568,110.665 -47.706,125.056 -67.882,194.978 v 0 c -18.992,65.779 -24.25,126.434 -24.25,126.434 v 0 c -50.075,-22.735 -0.788,-112.831 15.246,-289.741 v 0 c 5.783,-63.937 -120.522,-234.996 -113.948,-392.449 v 0 c 0.589,-65.976 159.358,-185.318 93.838,-297.492 v 0 c -10.315,-17.149 -49.942,-96.076 -103.303,-90.686 v 0 c -51.324,4.533 -63.807,47.838 -63.349,69.853 v 0 c 1.907,83.986 7.754,194.057 -3.88,298.48 v 0 c 4.998,117.894 -56.644,198.919 20.375,294.669 v 0 c 122.624,153.245 16.759,327.522 -5.258,372.342 v 0 c -20.306,41.926 -43.307,140.171 -50.139,190.573 v 0 c -0.854,7.293 -10.845,187.094 -11.436,218.11 v 0 c -0.851,33.377 -54.621,94.576 -59.547,95.083 v 0 z M 6214.05,3319.464 c 23.263,-45.344 56.252,-87.662 47.579,-143.125 v 0 c -4.405,-27.272 -14.458,-51.457 -47.907,-51.258 v 0 c -34.041,0.262 -43.503,23.589 -42.912,52.637 v 0 c 0.655,28.521 3.548,57.107 2.627,85.232 v 0 c -1.641,49.156 6.836,83.524 -71.563,100.351 v 0 c 54.871,-44.033 13.997,-77.284 -7.294,-109.486 v 0 c -42.847,-64.927 -54.741,-130.314 -20.11,-201.744 v 0 c 1.776,-3.746 3.352,-7.493 4.731,-11.303 v 0 c 103.766,-32.596 174.278,-93.712 251.954,-166.392 v 0 c 66.371,116.972 59.801,262.533 -28.717,412.102 v 0 c -48.17,81.026 -100.61,159.821 -99.625,277.119 v 0 c -57.502,-99.229 -25.63,-171.911 11.237,-244.133 m -1175.451,-82.602 c -17.807,-62.891 -33.908,-129.72 -49.089,-193.4 v 0 c -12.684,-53.034 -16.297,-98.375 -8.871,-138.788 v 0 c 35.421,19.777 76.69,30.03 116.449,23.263 v 0 c 3.614,1.904 7.162,3.872 10.777,5.78 v 0 c 7.755,15.707 19.517,28.847 37.787,31.148 v 0 c 6.439,0.855 12.748,-0.394 18.595,-3.021 v 0 c 0.199,0.063 0.331,0.129 0.461,0.197 v 0 c 35.289,16.36 76.231,35.815 117.04,42.186 v 0 c 0.788,20.898 1.708,41.732 1.443,62.498 v 0 c -0.92,78.792 -4.993,157.126 -81.091,226.385 v 0 c 18.861,-74.517 38.839,-142.267 22.936,-204.567 v 0 c -8.412,-33.119 -34.043,-52.311 -73.01,-49.421 v 0 c -38.444,2.892 -42.846,34.566 -45.212,63.285 v 0 c -5.127,59.737 -4.206,120.065 -13.539,178.946 v 0 c -9.2,58.813 -26.023,117.367 -113.424,142.664 v 0 c 67.095,-63.218 77.018,-121.837 58.748,-187.155"
                 style="fill:url(#linearGradient302);stroke:none"
                 id="path304" /></g></g></g></g><g
         id="g306"
         transform="matrix(0.77679012,0,0,0.77679012,1339.3779,971.44618)"><g
           id="g308"
           clip-path="url(#clipPath312)"><g
             id="g314"><g
               id="g316"
               clip-path="url(#clipPath320)"><g
                 id="g322"><g
                   id="g324"
                   clip-path="url(#clipPath328)"><g
                     id="g330"><g
                       id="g332"><path
                         d="m 5411.075,2917.548 h 73.207 v 24.187 h -73.207 z"
                         style="fill:url(#linearGradient342);stroke:none"
                         id="path344" /></g></g></g></g></g></g></g></g><g
         id="g346"
         transform="matrix(0.77679012,0,0,0.77679012,1339.3779,971.44618)"><g
           id="g348"
           clip-path="url(#clipPath352)"><g
             id="g354"><g
               id="g356"
               clip-path="url(#clipPath360)"><g
                 id="g362"><g
                   id="g364"
                   clip-path="url(#clipPath368)"><g
                     id="g370"><g
                       id="g372"><path
                         d="m 4957.245,2588.45 h 445.091 v 233.288 h -445.091 z"
                         style="fill:url(#linearGradient380);stroke:none"
                         id="path382" /></g></g></g></g></g></g></g></g><g
         id="g384"
         transform="matrix(0.77679012,0,0,0.77679012,1339.3779,971.44618)"><g
           id="g386"
           clip-path="url(#clipPath390)"><g
             id="g392"><g
               id="g394"><path
                 d="m 5642.697,4669.712 c -9.435,-1.314 33.863,-44.989 26.572,-102.184 v 0 c -0.458,-2.299 -14.587,-61.115 -23.263,-122.164 v 0 c -4.402,-30.164 -7.489,-60.786 -6.966,-85.627 v 0 c 1.184,-43.963 5.85,-58.222 6.244,-97.916 v 0 c 0.329,-37.717 10.645,-69.396 18.73,-109.677 v 0 c 8.738,-52.509 46.328,-132.876 -27.535,-192.281 v 0 c -107.51,57.17 -98.179,98.964 -96.076,197.078 v 0 c 3.286,54.019 9.461,214.821 -41.27,211.734 v 0 c -5.781,-5.386 28.718,-68.737 0.658,-161.987 v 0 c -31.545,-140.763 -34.305,-241.373 58.485,-388.638 v 0 c 179.205,-194.78 88.389,-510.675 75.442,-532.298 v 0 c -18.794,-31.345 -68.277,-68.473 -107.773,-72.811 v 0 c -48.234,-4.994 -97.388,8.347 -97.388,104.357 v 0 c 11.04,153.839 126.501,328.116 61.572,458.755 v 0 c -4.401,-41.99 2.369,-70.38 -3.352,-88.714 v 0 c -16.163,-51.455 -47.18,-93.51 -112.373,-86.151 v 0 c -73.798,8.281 -54.08,69.001 -53.556,114.738 v 0 c 0.59,65.65 6.572,131.365 5.323,196.62 v 0 c -1.315,63.546 -17.085,109.482 -75.378,119.735 v 0 c 84.513,-71.169 15.117,-229.875 -12.613,-335.677 v 0 c -62.695,-241.237 -15.117,-440.028 184.133,-598.728 v 0 c 4.993,6.964 12.353,12.683 22.343,16.097 v 0 c 168.164,56.649 353.744,2.238 523.027,-26.943 v 0 c 1.971,3.22 3.944,6.373 5.916,9.594 v 0 c 46.852,77.151 71.892,80.961 71.299,296.445 v 0 c 40.351,95.153 96.865,66.631 123.741,160.017 v 0 c 20.175,70.184 -29.111,199.443 -29.833,251.82 v 0 c -0.591,45.144 20.964,51.258 19.319,52.834 v 0 c 0,0 -61.115,12.486 -79.384,-213.84 v 0 c -2.956,-35.024 -68.473,-47.18 -93.378,-18.592 v 0 c -5.982,7.028 -22.083,35.614 -11.106,80.959 v 0 c 0.656,2.235 39.297,146.874 42.054,173.289 v 0 c 11.568,110.667 -47.707,125.056 -67.882,194.979 v 0 c -18.991,65.78 -24.25,126.433 -24.25,126.433 v 0 c -50.075,-22.733 -0.788,-112.831 15.246,-289.74 v 0 c 5.783,-63.937 -120.523,-234.997 -113.949,-392.45 v 0 c 0.589,-65.974 159.36,-185.316 93.84,-297.49 v 0 c -10.316,-17.151 -49.943,-96.077 -103.304,-90.687 v 0 c -51.324,4.534 -63.807,47.838 -63.35,69.855 v 0 c 1.907,83.984 7.755,194.055 -3.878,298.478 v 0 c 4.997,117.894 -56.644,198.919 20.374,294.668 v 0 c 122.623,153.246 16.759,327.525 -5.258,372.342 v 0 c -20.307,41.927 -43.308,140.172 -50.139,190.575 v 0 c -0.854,7.293 -10.846,187.092 -11.437,218.108 v 0 c -0.85,33.378 -54.62,94.578 -59.546,95.085 v 0 z M 6214.05,3319.464 c 23.263,-45.345 56.253,-87.662 47.578,-143.127 v 0 c -4.405,-27.271 -14.458,-51.456 -47.905,-51.257 v 0 c -34.043,0.263 -43.504,23.591 -42.911,52.638 v 0 c 0.653,28.522 3.547,57.106 2.626,85.232 v 0 c -1.643,49.155 6.834,83.525 -71.565,100.35 v 0 c 54.872,-44.032 13.998,-77.283 -7.293,-109.485 v 0 c -42.846,-64.928 -54.742,-130.314 -20.11,-201.745 v 0 c 3.482,-7.162 6.046,-14.458 7.884,-21.882 v 0 c 22.083,-10.254 44.162,-21.163 66.505,-32.728 v 0 c 65.652,-34.104 134.191,-62.693 189.131,-110.401 v 0 c 58.945,114.739 49.744,255.237 -35.553,399.418 v 0 c -48.169,81.026 -100.609,159.822 -99.624,277.12 v 0 c -57.502,-99.23 -25.631,-171.912 11.237,-244.133 m -1175.451,-82.602 c -17.807,-62.891 -33.908,-129.72 -49.089,-193.4 v 0 c -12.683,-53.034 -16.297,-98.376 -8.87,-138.789 v 0 c 35.419,19.777 76.689,30.03 116.447,23.263 v 0 c 3.614,1.904 7.164,3.874 10.778,5.779 v 0 c 7.754,15.709 19.518,28.85 37.786,31.149 v 0 c 6.44,0.857 12.749,-0.392 18.596,-3.019 v 0 c 0.199,0.063 0.331,0.127 0.461,0.196 v 0 c 35.354,16.428 76.231,35.88 117.04,42.255 v 0 c 0.788,20.829 1.708,41.662 1.443,62.43 v 0 c -0.92,78.791 -4.995,157.126 -81.091,226.385 v 0 c 18.86,-74.519 38.839,-142.269 22.936,-204.569 v 0 c -8.412,-33.12 -34.043,-52.31 -73.011,-49.42 v 0 c -38.443,2.892 -42.846,34.566 -45.211,63.284 v 0 c -5.127,59.738 -4.206,120.065 -13.54,178.947 v 0 c -9.198,58.813 -26.022,117.367 -113.422,142.664 v 0 c 67.093,-63.218 77.017,-121.837 58.747,-187.155"
                 style="fill:url(#linearGradient402);stroke:none"
                 id="path404" /></g></g></g></g><g
         id="g406"
         transform="matrix(0.77679012,0,0,0.77679012,1339.3779,971.44618)"><g
           id="g408"
           clip-path="url(#clipPath412)"><g
             id="g414"><g
               id="g416"><path
                 d="m 5641.497,4686.866 -1.142,-0.13 c -7.885,0 -17.48,-12.549 -16.758,-18.73 v 0 c 4.732,-24.904 28.523,-45.668 28.653,-87.266 v 0 c 0,-3.616 -0.13,-7.36 -0.658,-11.043 v 0 c 0.199,-0.393 -14.324,-60.854 -23.132,-121.969 v 0 c -4.075,-28.454 -7.031,-57.828 -7.162,-82.668 v 0 c 0,-2.164 0.131,-4.074 0.131,-5.717 v 0 -0.13 c 1.119,-45.407 5.916,-59.538 6.178,-97.391 v 0 c 0.46,-41.136 11.434,-73.795 19.057,-113.096 v 0 h 0.066 c 5.258,-29.903 17.149,-63.943 16.888,-95.946 v 0 c -0.262,-25.889 -6.439,-49.413 -29.506,-71.76 v 0 c -71.826,42.254 -75.44,64.994 -77.084,122.557 v 0 c 0,14.985 0.656,32.466 1.118,52.311 v 0 c 0.987,15.577 2.168,40.351 2.168,67.489 v 0 c -4.533,65.259 4.337,150.093 -59.601,162.252 v 0 h -2.696 l -10.975,-4.533 c -6.504,-6.77 -5.981,-11.898 -6.309,-14.852 v 0 c 1.184,-17.48 12.357,-41.006 12.553,-84.97 v 0 c -0.196,-20.24 -2.565,-43.766 -10.515,-69.658 v 0 l -0.331,-1.448 c -12.024,-53.887 -20.041,-102.843 -20.041,-151.406 v 0 c -0.264,-79.184 21.949,-156.599 80.764,-249.585 v 0 l 1.906,-2.367 c 82.21,-89.112 105.473,-206.279 105.473,-307.549 v 0 c 0.722,-107.64 -28.521,-200.695 -32.07,-204.764 v 0 c -14.458,-26.091 -63.875,-62.368 -94.695,-64.47 v 0 c -4.995,-0.459 -9.988,-0.721 -14.523,-0.721 v 0 c -35.159,2.495 -59.999,8.013 -62.956,87.924 v 0 c 8.016,115.069 80.569,247.614 81.357,368.335 v 0 c 0,33.714 -6.048,66.965 -21.491,97.98 v 0 c -3.482,6.836 -11.171,10.846 -18.926,9.4 v 0 c -7.819,-1.318 -13.668,-7.558 -14.455,-15.115 v 0 c -1.513,-12.681 -1.841,-24.181 -1.841,-34.305 v 0 c 0,-13.602 0.591,-25.169 0.591,-34.042 v 0 c 0.197,-7.948 -0.395,-13.867 -1.51,-16.954 v 0 c -15.313,-45.469 -36.277,-74.91 -81.16,-74.979 v 0 c -3.944,0 -8.016,0.069 -12.421,0.721 v 0 c -39.229,6.707 -38.05,17.613 -40.676,46.596 v 0 c 0,15.378 2.496,33.185 2.626,51.06 v 0 c 0.658,58.419 5.587,117.627 5.587,177.892 v 0 c 0,6.436 0,12.88 -0.065,19.254 v 0 c 0,64.271 -20.242,124.333 -89.964,136.163 v 0 c -7.821,1.576 -15.771,-2.431 -19.123,-9.398 v 0 c -3.286,-7.031 -1.576,-15.38 4.271,-20.24 v 0 c 24.906,-21.162 34.435,-51.065 34.631,-89.771 v 0 c 0.196,-69.788 -34.172,-159.424 -52.573,-228.884 v 0 c -17.347,-66.568 -26.483,-130.05 -26.483,-190.968 v 0 c -0.261,-158.046 63.221,-297.034 201.353,-412.89 v 0 c 11.302,5.847 22.87,11.303 34.568,16.493 v 0 c -139.777,112.837 -200.303,242.95 -200.631,396.397 v 0 c 0,57.567 8.609,118.218 25.433,182.554 v 0 c 15.968,62.367 48.497,145.561 53.099,220.808 v 0 c 0,-0.33 0.066,-0.595 0.066,-0.987 v 0 c 0.064,-6.179 0.261,-12.29 0.261,-18.531 v 0 c 0,-58.158 -5.191,-117.435 -5.717,-177.629 v 0 c -0.066,-14.655 -2.63,-32.792 -2.63,-51.323 v 0 c -2.56,-33.123 15.773,-76.757 71.895,-80.763 v 0 c 5.648,-0.527 11.038,-0.926 16.493,-0.926 v 0 c 50.338,-0.063 82.079,28.789 100.873,64.538 v 0 c -12.616,-100.546 -70.248,-217.782 -78.857,-329.367 v 0 -1.051 c 0,-89.832 49.287,-122.23 98.375,-122.494 v 0 c 6.242,0 12.419,0.526 18.401,1.121 v 0 c 48.627,6.37 98.309,44.75 121.308,81.157 v 0 c 9.99,18.396 36.144,106.59 36.934,222.179 v 0 c -0.132,105.674 -24.118,230.993 -113.689,329.496 v 0 c -55.398,88.649 -74.456,157.521 -74.585,230.005 v 0 c 0,44.815 7.557,91.278 19.386,144.313 v 0 c 3.416,11.498 5.978,22.605 7.755,33.313 v 0 c 0.065,-4.334 0.131,-8.671 0.131,-13.011 v 0 c 0,-26.22 -1.118,-49.94 -1.974,-65.387 v 0 -0.722 c -0.526,-19.649 -1.248,-37.389 -1.248,-53.691 v 0 c -1.972,-64.203 17.35,-113.684 106.265,-158.964 v 0 l 19.713,2.107 c 39.163,30.883 51.65,70.645 51.259,106.06 v 0 c -0.135,39.825 -13.539,76.624 -17.548,102.123 v 0 l -0.067,0.462 c -8.409,41.596 -18.136,72.088 -18.465,106.786 v 0 c -0.393,41.465 -5.258,55.66 -6.11,97.978 v 0 -0.324 c -0.134,1.642 -0.134,3.415 -0.134,5.255 v 0 c 0,22.079 2.959,50.273 6.836,77.808 v 0 c 7.426,50.731 17.807,97.523 21.817,115.463 v 0 c 2.234,-54.218 10.055,-194.847 11.041,-203.853 v 0 c 7.292,-52.831 29.637,-150.092 51.785,-195.764 v 0 c 14.85,-30.032 61.639,-110.136 61.639,-201.091 v 0 c 0,-49.741 -13.668,-102.314 -54.611,-153.178 v 0 c -32.328,-40.222 -42.843,-80.566 -42.582,-119.34 v 0 c 0.196,-56.514 19.319,-109.875 18.926,-172.37 v 0 c 0,-4.271 0,-8.61 -0.265,-13.079 v 0 l 0.199,-2.564 c 5.257,-47.838 6.836,-97.256 6.836,-144.898 v 0 c 0,-54.414 -2.037,-106.332 -3.157,-151.278 v 0 -1.708 c -0.391,-12.815 3.484,-31.412 14.26,-48.17 v 0 c 38.641,-5.982 77.151,-14.325 116.253,-23.524 v 0 c 39.494,24.901 60.915,74.125 68.934,85.294 v 0 c 12.814,22.016 18.204,44.559 18.204,66.438 v 0 c -2.104,103.57 -114.016,200.697 -109.679,239.666 v 0 0.589 c -0.133,3.745 -0.133,7.556 -0.133,11.304 v 0 c -0.854,144.443 111.651,298.151 114.414,375.955 v 0 c 0,1.842 -0.135,4.013 -0.397,5.786 v 0 c -5.258,57.367 -13.801,105.934 -21.489,145.624 v 0 c 24.185,-62.691 65.52,-77.543 64.663,-151.668 v 0 c 0,-7.954 -0.328,-16.303 -1.314,-25.434 v 0 c -2.3,-22.078 -41.006,-168.363 -41.598,-170.794 v 0 c -2.956,-12.421 -4.337,-23.852 -4.206,-34.301 v 0 c 0.265,-32.334 11.303,-52.64 18.926,-61.645 v 0 c 14.194,-15.968 35.027,-22.012 54.217,-22.012 v 0 c 29.965,0 65.583,14.455 70.118,50.273 v 0 c 5.715,70.774 15.772,117.105 26.152,146.872 v 0 c 6.179,-51.849 33.713,-134.847 33.32,-196.159 v 0 c 0.066,-13.67 -1.445,-25.76 -4.205,-35.683 v 0 c -20.373,-82.536 -75.244,-53.231 -122.889,-158.176 v 0 l -1.249,-6.64 v -6.77 c -1.445,-209.301 -21.621,-201.089 -68.87,-280.537 v 0 c -0.13,-0.133 -0.196,-0.261 -0.326,-0.391 v 0 c 11.895,-3.16 23.656,-6.247 35.419,-9.664 v 0 c 42.715,66.834 70.446,89.767 69.066,290.592 v 0 3.88 c 24.841,60.723 62.956,61.97 94.169,101.197 v 0 c -2.038,-11.756 -3.153,-23.262 -3.153,-34.43 v 0 c 0,-54.477 22.214,-100.94 44.557,-144.971 v 0 c 21.949,-42.058 47.577,-77.673 47.18,-117.367 v 0 c 0,-5.056 -0.457,-10.185 -1.247,-15.505 v 0 c -5.781,-26.422 -8.807,-35.883 -29.834,-36.473 v 0 h -0.328 c -22.409,1.773 -22.935,7.559 -25.565,32.33 v 0 2.564 c 0.592,23.919 2.893,48.429 2.893,74.193 v 0 c 0,4.075 -0.133,8.016 -0.199,12.157 v 0 c 1.71,43.503 1.58,101.4 -85.497,116.579 v 0 c -7.95,1.84 -15.967,-2.104 -19.646,-9.265 v 0 c -3.551,-7.099 -1.71,-15.64 4.469,-20.765 v 0 c 17.942,-14.659 20.897,-24.119 21.159,-31.612 v 0 c 1.118,-13.275 -16.296,-33.251 -31.935,-55.595 v 0 c -26.945,-40.808 -43.044,-83.26 -43.044,-128.012 v 0 c 0,-18.203 2.693,-36.738 8.278,-55.464 v 0 c 14.72,-4.994 29.442,-10.319 43.766,-16.1 v 0 c -11.564,24.838 -16.689,48.696 -16.689,71.564 v 0 c 0,36.603 13.075,72.611 37.39,109.481 v 0 c 11.173,18.531 36.407,40.021 37.457,74.126 v 0 c 0,2.233 -0.196,4.468 -0.457,6.769 v 0 c 11.498,-12.552 6.309,-29.506 9.396,-62.89 v 0 c 0.13,-3.615 0.13,-7.296 0.13,-10.973 v 0 c 0,-23.658 -2.038,-48.105 -2.76,-73.468 v 0 -3.289 c -0.261,-30.164 16.953,-66.635 60.328,-66.635 v 0 h 0.854 c 44.817,-0.658 62.036,37.593 64.729,65.716 v 0 c 1.116,7.1 1.578,13.866 1.578,20.567 v 0 c -0.33,53.956 -31.412,94.3 -50.866,132.878 v 0 c -22.078,43.306 -40.742,84.514 -40.742,129.46 v 0 c 0,10.118 0.921,20.567 3.025,31.343 v 0 c 16.165,-83.327 58.09,-147.592 95.022,-210.221 v 0 c 48.169,-81.225 71.038,-160.408 71.038,-233.42 v 0 c -0.131,-50.471 -10.975,-98.376 -32.331,-142.474 v 0 c 8.873,-11.102 16.166,-22.669 21.356,-34.891 v 0 c 30.493,53.953 46.333,113.881 46.264,177.365 v 0 c 0,80.106 -24.97,165.01 -75.704,250.44 v 0 c -48.037,81.289 -97.258,155.35 -97.258,265.491 v 0 3.02 c 0.132,7.758 -5.257,14.922 -13.009,16.891 v 0 c -6.313,1.574 -12.752,-0.392 -17.023,-4.663 v 0 c 0.461,5.847 0.722,11.692 0.722,17.741 v 0 c -0.393,75.703 -34.761,173.948 -34.761,211.799 v 0 1.776 c 0.59,27.531 8.149,32.264 10.579,34.962 v 0 c 0.919,4.333 1.709,0 8.939,15.636 v 0 c 0.195,4.867 -3.091,10.713 -6.114,13.082 v 0 l -8.215,3.809 c -0.788,0.26 -2.76,0.525 -5.255,0.525 v 0 c -26.813,-1.645 -79.253,-25.824 -95.223,-229.738 v 0 c 0,-7.36 -14.654,-18.795 -34.959,-18.667 v 0 c -12.093,0 -22.409,4.074 -27.273,9.922 v 0 c -1.247,1.252 -10.712,15.972 -10.647,39.565 v 0 c 0,7.948 0.987,16.689 3.418,26.283 v 0 0.265 c 0.46,2.236 38.971,145.1 42.189,175.263 v 0 c 1.118,10.12 1.646,19.649 1.646,28.718 v 0 c -0.79,95.22 -56.453,117.956 -69.989,172.432 v 0 c -18.664,64.14 -23.789,123.09 -23.789,123.483 v 0 c -0.526,5.456 -3.811,10.445 -8.674,13.271 v 0 c -5.125,2.829 -11.107,3.222 -16.431,0.658 v 0 c -23.789,-10.316 -32.659,-34.763 -31.935,-58.617 v 0 c 0.395,-51.453 26.614,-129.131 37.195,-248.14 v 0 l 0.064,-2.829 c 2.762,-52.833 -113.621,-219.224 -114.345,-375.955 v 0 c 0,-4.204 0.066,-8.475 0.265,-12.615 v 0 h 0.066 c 5.717,-70.383 111.651,-155.681 109.678,-238.944 v 0 c -0.197,-16.493 -4.009,-32.656 -13.802,-49.413 v 0 c -8.804,-18.599 -49.877,-86.088 -82.669,-82.607 v 0 l -3.35,0.329 c -38.51,3.287 -46.46,33.843 -47.383,51.653 v 0 l 0.066,0.982 c 0.987,44.425 3.025,96.737 3.025,152.004 v 0 c 0,47.38 -1.579,97.124 -6.9,146.214 v 0 c 0.13,4.735 0.196,9.595 0.196,14.327 v 0 c -0.066,68.805 -19.388,124.003 -18.992,172.37 v 0 c 0.262,33.447 7.558,63.349 35.287,98.179 v 0 c 46.003,57.237 61.907,118.549 61.907,174.339 v 0 c 0,101.731 -51.456,187.882 -64.993,215.814 v 0 c -18.86,37.522 -42.388,136.882 -48.763,185.515 v 0 c -0.656,4.335 -10.776,186.694 -11.368,216.069 v 0 c -9.987,49.149 -45.005,98.756 -77.072,111.845 v 0 z"
                 style="fill:url(#linearGradient424);stroke:none"
                 id="path426" /></g></g></g></g><g
         id="g428"
         transform="matrix(0.77679012,0,0,0.77679012,1339.3779,971.44618)"><g
           id="g430"
           clip-path="url(#clipPath434)"><g
             id="g436"><g
               id="g438"><path
                 d="m 4964.54,3432.56 c -4.01,-6.836 -2.761,-15.505 3.087,-20.827 v 0 c 45.607,-43.506 61.115,-81.031 61.38,-120.722 v 0 c 0,-15.904 -2.499,-32.201 -7.427,-49.616 v 0 c -17.807,-63.283 -34.038,-130.381 -49.286,-194.056 v 0 c -8.477,-35.486 -13.078,-68.085 -13.078,-98.704 v 0 c -0.197,-27.007 3.682,-52.177 11.567,-75.967 v 0 c 3.483,1.444 6.901,2.958 10.318,4.4 v 0 c -11.237,3.16 -15.707,18.795 -4.01,25.568 v 0 c 6.506,3.807 13.276,7.29 20.177,10.378 v 0 c -1.776,11.372 -2.761,23.2 -2.826,35.621 v 0 c 0,27.204 4.205,57.371 12.222,91.082 v 0 c 15.312,63.547 31.412,130.178 48.893,192.742 v 0 c 5.583,19.453 8.804,38.971 8.804,58.552 v 0 c 0.065,22.079 -4.272,44.027 -13.668,65.717 v 0 c 14.456,-22.083 19.976,-48.498 25.17,-77.939 v 0 c 9.001,-57.044 8.082,-117.171 13.271,-177.893 v 0 c 1.053,-26.877 9.072,-74.848 61.576,-78.99 v 0 c 3.023,-0.263 5.916,-0.263 8.742,-0.263 v 0 c 41.925,-0.854 74.126,25.696 82.735,62.759 v 0 c 4.404,17.481 6.308,35.154 6.308,52.966 v 0 c -0.132,26.68 -4.206,53.625 -10.054,81.029 v 0 c 24.38,-47.186 26.353,-97.522 27.011,-151.936 v 0 c 0.195,-2.168 0.195,-4.137 0.195,-6.505 v 0 c 0,-15.048 -0.591,-30.428 -1.183,-46.002 v 0 c 0.988,0.722 1.972,1.514 2.956,2.236 v 0 c 10.845,8.147 21.883,16.166 33.186,23.921 v 0 c 0.199,6.571 0.265,13.206 0.265,19.845 v 0 6.968 c -0.658,78.594 -5.194,164.878 -86.81,238.673 v 0 c -5.652,5.196 -14.261,6.05 -20.896,2.234 v 0 c -6.836,-3.676 -10.188,-11.431 -8.217,-18.923 v 0 c 14.195,-55.595 28.323,-106.394 28.258,-151.54 v 0 c 0,-15.443 -1.642,-30.361 -5.389,-44.619 v 0 c -7.228,-24.711 -20.503,-36.014 -48.365,-36.8 v 0 h -6.046 c -24.183,2.103 -25.17,17.151 -28.98,47.838 v 0 c -5.128,58.358 -4.272,119.077 -13.671,180.192 v 0 c -8.147,59.208 -30.228,129.854 -125.909,156.27 v 0 c -1.708,0.527 -3.418,0.79 -5.124,0.79 v 0 c -6.114,0 -11.962,-3.155 -15.182,-8.479"
                 style="fill:url(#linearGradient446);stroke:none"
                 id="path448" /></g></g></g></g><g
         id="g450"
         transform="matrix(0.77679012,0,0,0.77679012,1339.3779,971.44618)"><g
           id="g452"
           clip-path="url(#clipPath456)"><g
             id="g458"><g
               id="g460"><path
                 d="m 4382.895,2045.507 c 0.46,0 0.984,0.068 1.576,0.068 v 0 c 94.63,586.509 719.451,996.769 1425.562,924.154 v 0 c 560.813,-57.765 1008.73,-403.163 1156.391,-840.04 v 0 c 6.573,4.209 14.128,7.296 22.935,8.742 v 0 c -125.909,481.102 -585.852,866.522 -1169.534,926.649 v 0 c -52.245,5.325 -104.028,7.951 -155.22,7.951 v 0 c -0.04,0 -0.115,0 -0.156,0 v 0 C 5004.984,3073.046 4447.816,2637.7 4382.895,2045.507"
                 style="fill:url(#linearGradient468);stroke:none"
                 id="path470" /></g></g></g></g><g
         id="g480"
         transform="matrix(0.77679012,0,0,0.77679012,5577.8547,5051.9329)"><path
           d="M 0,0 C 32.858,17.151 62.824,10.709 96.864,1.444 63.547,-38.577 33.844,-42.191 0,0"
           style="fill:#23160d;fill-opacity:1;fill-rule:evenodd;stroke:none"
           id="path482" /></g><g
         id="g484"
         transform="matrix(0.77679012,0,0,0.77679012,6760.108,2648.312)"><path
           d="m 0,0 c -122.428,505.349 -577.9,908.119 -1158.43,967.854 -721.356,74.254 -1362.671,-409.276 -1436.141,-1081.083 0.46,0.066 0.986,0.066 1.577,0.066 97.653,617.657 721.883,1052.957 1424.247,980.668 C -610.955,810.072 -167.246,449.359 -22.869,-9.334 -16.363,-4.93 -8.74,-1.645 0,0"
           style="fill:#3065ac;fill-opacity:1;fill-rule:nonzero;stroke:none"
           id="path486" /></g><g
         id="g932"
         transform="matrix(0.77679012,0,0,0.77679012,1206.4428,971.44606)"><g
           id="g488"
           transform="matrix(1.4163156,0,0,1.4163156,4518.6116,667.98006)"><path
             d="m 0,0 h -365.181 l 245.776,724.839 h -199.052 l 55.398,164.878 c 34.632,0 68.606,2.038 102.122,6.113 33.449,4.075 66.306,10.186 98.638,18.466 33.384,8.082 64.007,20.109 91.673,36.077 27.731,15.837 53.032,36.078 76.099,60.589 h 237.1 z"
             style="fill:#294390;fill-opacity:1;fill-rule:nonzero;stroke:none"
             id="path490" /></g><g
           id="g492"
           transform="matrix(1.4163156,0,0,1.4163156,5520.0174,667.98006)"><path
             d="m 0,0 h -365.18 l 245.709,724.839 h -198.985 l 55.397,164.878 c 34.567,0 68.607,2.038 102.056,6.113 33.449,4.075 66.308,10.186 98.639,18.466 33.515,8.082 64.072,20.109 91.804,36.077 27.666,15.837 52.901,36.078 75.967,60.589 h 237.035 z"
             style="fill:#294390;fill-opacity:1;fill-rule:nonzero;stroke:none"
             id="path494" /></g><g
           id="g496"
           transform="matrix(1.4163156,0,0,1.4163156,6369.2673,1189.0625)"><path
             d="m 0,0 c -2.366,-38.183 2.825,-69.133 15.574,-92.659 12.683,-22.738 28.258,-40.876 46.724,-54.479 18.466,-13.67 40.348,-22.738 65.781,-27.272 3.483,-0.921 7.491,-1.839 12.091,-2.76 4.666,-0.92 9.266,-1.313 13.932,-1.313 3.418,-0.921 7.492,-1.382 12.091,-1.382 h 13.801 c 33.515,0 67.292,5.916 101.399,17.678 34.04,11.829 68.278,29.047 102.91,51.784 33.514,23.591 64.4,56.121 92.593,97.389 28.257,41.401 52.243,91.541 71.827,150.555 19.583,59.144 29.636,109.284 30.294,150.618 0.591,41.27 -8.412,73.275 -26.877,96.011 -18.401,23.658 -40.613,41.334 -66.57,53.165 -25.958,11.762 -55.661,17.676 -89.175,17.676 h -6.901 -6.9 c -2.3,-0.921 -4.6,-1.314 -6.901,-1.314 h -6.899 c -2.3,0 -4.6,-0.262 -6.966,-0.723 -2.301,-0.46 -4.6,-0.657 -6.966,-0.657 -3.417,-0.92 -6.309,-1.644 -8.608,-2.037 -2.366,-0.462 -4.601,-0.724 -6.9,-0.724 -27.667,-4.535 -55.399,-13.603 -83.13,-27.271 -27.666,-13.538 -55.99,-32.201 -84.839,-55.792 C 142.536,343.755 116.447,313.328 93.446,275.214 70.381,237.034 49.549,191.165 31.148,137.541 12.683,83.982 2.3,38.113 0,0 m -196.357,356.241 c 44.422,62.233 97.784,112.899 160.016,151.933 61.115,39.955 122.296,72.221 183.543,96.734 61.115,24.576 122.361,41.269 183.477,50.404 5.717,0.854 11.566,1.576 17.283,2.037 5.783,0.459 11.565,1.183 17.349,2.101 5.717,0.79 11.5,1.513 17.283,1.972 5.783,0.461 11.5,1.183 17.283,2.038 12.684,0.92 24.512,1.578 35.486,2.037 10.975,0.459 22.212,0.658 33.779,0.658 74.915,0 143.324,-10.186 205.031,-30.624 61.706,-20.371 116.775,-51.061 165.273,-92.001 47.316,-40.875 74.982,-95.092 83.065,-162.778 8.083,-67.687 -4.074,-148.714 -36.341,-243.211 -32.332,-94.434 -75.572,-175.525 -129.788,-243.147 -54.215,-67.687 -118.813,-121.967 -193.86,-162.843 -76.032,-40.873 -151.933,-71.104 -227.505,-90.621 -75.639,-19.517 -150.949,-29.308 -225.996,-29.308 -11.5,0 -22.803,0.263 -33.711,0.722 -10.975,0.459 -21.687,1.117 -32.004,1.971 -5.783,0.987 -11.303,1.709 -16.429,2.104 -5.191,0.459 -10.712,1.184 -16.494,2.102 -5.849,0.854 -11.237,1.512 -16.429,2.038 -5.192,0.394 -10.646,1.117 -16.429,2.037 -54.215,8.082 -103.764,24.51 -148.713,49.024 -45.082,24.511 -84.248,56.318 -117.697,95.352 -34.566,40.021 -53.36,90.621 -56.253,152.001 -2.825,61.245 10.12,134.189 38.97,218.568 28.783,83.59 65.387,156.469 109.811,218.7"
             style="fill:#294390;fill-opacity:1;fill-rule:nonzero;stroke:none"
             id="path498" /></g></g><g
         id="g500"
         transform="matrix(0.77679012,0,0,0.77679012,5281.4145,3104.5677)"><path
           d="m 0,0 h 94.039 v -340.537 h 165.799 v -79.844 H 0 Z"
           style="fill:#294390;fill-opacity:1;fill-rule:nonzero;stroke:none"
           id="path502" /></g><path
         d="m 5524.0667,3014.9517 h 73.0485 v -236.9078 h -73.0485 z m 75.448,65.8998 c 0,-20.3675 -14.9066,-36.8556 -39.4088,-36.8556 -23.0738,0 -37.9276,16.4881 -37.9276,36.8556 0,20.8281 15.3641,36.7554 38.897,36.7554 23.5328,0 37.9796,-15.9273 38.4394,-36.7554"
         style="fill:#294390;fill-opacity:1;fill-rule:nonzero;stroke:none;stroke-width:0.77679"
         id="path504" /><g
         id="g506"
         transform="matrix(0.77679012,0,0,0.77679012,5655.247,2841.983)"><path
           d="m 0,0 c 17.35,-10.647 53.229,-22.476 81.027,-22.476 28.454,0 40.152,9.331 40.152,24.973 0,16.23 -9.266,23.656 -43.898,35.551 -63.021,21.159 -87.138,55.529 -86.547,91.674 0,57.368 48.235,100.41 123.019,100.41 35.289,0 66.176,-8.74 84.773,-18.07 l -16.1,-65.518 c -13.604,7.492 -40.153,17.479 -65.584,17.479 -22.803,0 -35.815,-9.334 -35.815,-24.314 0,-14.983 11.763,-22.474 48.827,-35.551 57.5,-19.978 81.027,-49.944 81.618,-94.237 0,-57.368 -43.898,-99.099 -130.445,-99.099 -39.56,0 -74.85,9.332 -97.718,21.818 z"
           style="fill:#294390;fill-opacity:1;fill-rule:nonzero;stroke:none"
           id="path508" /></g><g
         id="g510"
         transform="matrix(0.77679012,0,0,0.77679012,5945.8476,3078.8979)"><path
           d="m 0,0 v -82.345 h 67.424 v -69.854 H 0 v -110.4 c 0,-36.802 9.266,-53.624 37.063,-53.624 13.011,0 19.189,0.591 27.864,2.496 l 0.656,-71.761 c -11.763,-4.336 -34.632,-8.082 -60.654,-8.082 -30.295,0 -55.661,10.581 -71.105,26.155 -17.348,18.138 -25.957,47.445 -25.957,90.489 v 124.727 h -40.218 v 69.854 h 40.218 v 56.779 z"
           style="fill:#294390;fill-opacity:1;fill-rule:nonzero;stroke:none"
           id="path512" /></g><g
         id="g514"
         transform="matrix(0.77679012,0,0,0.77679012,6165.441,2889.9377)"><path
           d="m 0,0 c -49.483,0 -87.861,-11.83 -87.861,-48.039 0,-24.315 16.1,-36.143 37.129,-36.143 22.869,0 42.649,15.575 48.892,34.895 1.248,4.994 1.84,10.645 1.84,16.23 z m 90.95,-70.515 c 0,-28.65 1.183,-56.711 4.929,-73.534 H 11.106 l -5.52,30.491 h -1.84 c -19.847,-24.314 -50.732,-37.392 -86.613,-37.392 -61.246,0 -97.784,44.951 -97.784,93.513 0,79.319 70.578,116.644 177.562,116.644 v 3.746 c 0,16.891 -8.674,39.953 -55.069,39.953 -30.886,0 -63.678,-10.576 -83.525,-23.062 l -17.283,61.114 c 21.029,11.829 62.496,27.468 117.499,27.468 100.874,0 132.417,-59.932 132.417,-132.283 z"
           style="fill:#294390;fill-opacity:1;fill-rule:nonzero;stroke:none"
           id="path516" /></g></g></g></svg>
